<svg width="6" height="12" viewBox="0 0 25 12" fill="none" xmlns="http://www.w3.org/2000/svg">
<path d="M12.5088 8.87081L22.1985 0.430622C22.5281 0.14354 22.9126 0.00459161 23.3521 0.0137782C23.7915 0.0229648 24.176 0.171482 24.5056 0.459329C24.8352 0.746411 25 1.08134 25 1.46411C25 1.84689 24.8352 2.18182 24.5056 2.4689L14.3874 11.311C14.1238 11.5407 13.8271 11.7129 13.4976 11.8278C13.168 11.9426 12.8384 12 12.5088 12C12.1792 12 11.8496 11.9426 11.5201 11.8278C11.1905 11.7129 10.8939 11.5407 10.6302 11.311L0.479045 2.4689C0.149462 2.18182 -0.0100561 1.84191 0.000490542 1.44919C0.0110372 1.05646 0.181541 0.716938 0.512003 0.430622C0.841586 0.14354 1.2261 -4.76837e-07 1.66554 -4.76837e-07C2.10499 -4.76837e-07 2.4895 0.14354 2.81908 0.430622L12.5088 8.87081Z" fill=""/>
</svg>
