<svg width="90" height="90" viewBox="0 0 90 90" fill="none" xmlns="http://www.w3.org/2000/svg">
<circle cx="45" cy="45" r="42.5" fill="#424242" stroke="#B7B7B7" stroke-width="5"/>
<path d="M63.5185 25.25H57.5972L54.7222 20.3906C54.4681 19.9622 54.1238 19.611 53.72 19.3684C53.3161 19.1258 52.8652 18.9992 52.4074 19H37.5926C37.1348 18.9992 36.6839 19.1258 36.28 19.3684C35.8762 19.611 35.5319 19.9622 35.2778 20.3906L32.4005 25.25H26.4815C24.7625 25.25 23.1139 26.0182 21.8984 27.3857C20.6829 28.7531 20 30.6078 20 32.5417V61.7083C20 63.6422 20.6829 65.4969 21.8984 66.8643C23.1139 68.2318 24.7625 69 26.4815 69H63.5185C64.3697 69 65.2125 68.8114 65.9989 68.445C66.7852 68.0785 67.4998 67.5414 68.1016 66.8643C68.7035 66.1872 69.1809 65.3834 69.5066 64.4987C69.8323 63.6141 70 62.6659 70 61.7083V32.5417C70 31.5841 69.8323 30.6359 69.5066 29.7513C69.1809 28.8666 68.7035 28.0628 68.1016 27.3857C67.4998 26.7086 66.7852 26.1715 65.9989 25.805C65.2125 25.4386 64.3697 25.25 63.5185 25.25ZM64.4444 61.7083C64.4444 61.9846 64.3469 62.2496 64.1732 62.4449C63.9996 62.6403 63.7641 62.75 63.5185 62.75H26.4815C26.2359 62.75 26.0004 62.6403 25.8268 62.4449C25.6531 62.2496 25.5556 61.9846 25.5556 61.7083V32.5417C25.5556 32.2654 25.6531 32.0004 25.8268 31.8051C26.0004 31.6097 26.2359 31.5 26.4815 31.5H33.8889C34.3467 31.5008 34.7976 31.3742 35.2015 31.1316C35.6053 30.889 35.9496 30.5378 36.2037 30.1094L39.0787 25.25H50.919L53.7963 30.1094C54.0504 30.5378 54.3947 30.889 54.7985 31.1316C55.2024 31.3742 55.6533 31.5008 56.1111 31.5H63.5185C63.7641 31.5 63.9996 31.6097 64.1732 31.8051C64.3469 32.0004 64.4444 32.2654 64.4444 32.5417V61.7083ZM45 33.5833C42.8024 33.5833 40.6542 34.3164 38.827 35.69C36.9998 37.0635 35.5756 39.0157 34.7347 41.2998C33.8937 43.5839 33.6737 46.0972 34.1024 48.522C34.5311 50.9467 35.5893 53.174 37.1433 54.9222C38.6972 56.6703 40.677 57.8608 42.8323 58.3432C44.9877 58.8255 47.2217 58.5779 49.252 57.6318C51.2823 56.6857 53.0176 55.0836 54.2385 53.028C55.4595 50.9724 56.1111 48.5556 56.1111 46.0833C56.108 42.7692 54.9364 39.5918 52.8534 37.2483C50.7703 34.9049 47.9459 33.5868 45 33.5833ZM45 52.3333C43.9012 52.3333 42.8271 51.9668 41.9135 51.28C40.9999 50.5933 40.2878 49.6171 39.8673 48.4751C39.4468 47.3331 39.3368 46.0764 39.5512 44.864C39.7656 43.6516 40.2947 42.538 41.0716 41.6639C41.8486 40.7898 42.8385 40.1946 43.9162 39.9534C44.9938 39.7123 46.1109 39.836 47.126 40.3091C48.1412 40.7821 49.0088 41.5832 49.6193 42.611C50.2297 43.6388 50.5556 44.8472 50.5556 46.0833C50.5556 47.7409 49.9702 49.3307 48.9284 50.5028C47.8865 51.6749 46.4734 52.3333 45 52.3333Z" fill="#B7B7B7"/>
</svg>
