<svg width="43" height="35" viewBox="0 0 43 35" fill="none" xmlns="http://www.w3.org/2000/svg">
<path d="M23.5933 14.3896C22.6458 14.3896 21.9116 15.0015 21.9116 15.7568C21.9116 16.5122 22.6458 17.124 23.5933 17.124C24.4587 17.124 25.1929 16.5122 25.1929 15.7568C25.1929 15.0015 24.4587 14.3896 23.5933 14.3896ZM12.1089 14.3896C11.1614 14.3896 10.4272 15.0015 10.4272 15.7568C10.4272 16.5122 11.1614 17.124 12.1089 17.124C12.9743 17.124 13.7085 16.5122 13.7085 15.7568C13.7085 15.0015 12.9743 14.3896 12.1089 14.3896Z" fill="#333333"/>
<path d="M36.7592 11.7921C34.7864 9.5362 32.0301 8.02887 29.0073 7.3487V7.35212C28.3059 6.7027 27.5143 6.10456 26.6284 5.57135C19.9141 1.50397 10.4887 2.74469 5.58734 8.33991C1.63754 12.8858 1.8057 19.0006 5.83344 23.3448L5.86625 27.877C5.86625 27.9864 5.88676 28.0958 5.92777 28.1983C6.14516 28.7759 6.88344 29.0938 7.5725 28.9127L12.7651 27.5489C14.1391 27.9556 15.5582 28.1881 16.9692 28.253L16.9487 28.2667C20.6032 30.4849 25.3938 31.1514 29.7866 29.9415L34.9996 31.3565C35.1309 31.3907 35.2662 31.4112 35.4057 31.4112C36.1317 31.4112 36.7182 30.9224 36.7182 30.3174V25.7374C40.3317 21.6495 40.426 15.9996 36.7592 11.7921ZM13.3393 25.1221L12.8471 24.9512L8.78656 26.0108L8.74555 22.4561L8.41742 22.1485C4.9475 18.6212 4.71781 13.5386 7.96625 9.80963C11.9202 5.29108 19.4998 4.29303 24.9057 7.55378C30.328 10.8384 31.5297 17.1446 27.6127 21.6358C24.3274 25.3922 18.4457 26.7799 13.3393 25.1221ZM34.0522 24.5411L33.7241 24.8829L33.7651 28.4376L29.7455 27.3096L29.2534 27.4805C26.9565 28.1915 24.5079 28.2496 22.2397 27.7198L22.2315 27.7164C25.2625 26.9405 28.0106 25.3682 29.9916 23.1055C33.1252 19.5064 33.6338 14.9844 31.8127 11.129L31.8373 11.1426C32.7807 11.7066 33.6461 12.4107 34.3803 13.2618C37.358 16.6661 37.1899 21.3008 34.0522 24.5411Z" fill="#333333"/>
<path d="M17.8511 14.3896C16.9036 14.3896 16.1694 15.0015 16.1694 15.7568C16.1694 16.5122 16.9036 17.124 17.8511 17.124C18.7165 17.124 19.4507 16.5122 19.4507 15.7568C19.4507 15.0015 18.7165 14.3896 17.8511 14.3896Z" fill="#333333"/>
</svg>
