<svg width="70" height="66" viewBox="0 0 70 66" fill="none" xmlns="http://www.w3.org/2000/svg">
<path d="M69.375 4.375C69.375 2.1875 67.0625 0 64.75 0H4.625C2.3125 0 0 2.1875 0 4.375V45.9375H69.375V4.375Z" fill="#212528"/>
<path d="M0 45.9375V50.3125C0 52.5 2.3125 54.6875 4.625 54.6875H64.75C67.0625 54.6875 69.375 52.5 69.375 50.3125V45.9375H0Z" fill="#DDDDDD"/>
<path d="M25.4375 56.875C25.4375 61.25 20.8125 61.25 16.1875 61.25H53.1875C48.5625 61.25 43.9375 61.25 43.9375 56.875V54.6875H25.4375V56.875Z" fill="#BFBEBE"/>
<path d="M4.625 4.375H64.75V41.5625H4.625V4.375Z" fill="#3E4347"/>
<path d="M34.6875 51.2969C35.3261 51.2969 35.8438 50.8072 35.8438 50.2031C35.8438 49.5991 35.3261 49.1094 34.6875 49.1094C34.0489 49.1094 33.5312 49.5991 33.5312 50.2031C33.5312 50.8072 34.0489 51.2969 34.6875 51.2969Z" fill="#94989B"/>
<path d="M16.1875 61.25H53.1875V65.625H16.1875V61.25Z" fill="#94989B"/>
</svg>
