<svg width="30" height="30" viewBox="0 0 30 30" fill="none" xmlns="http://www.w3.org/2000/svg">
<path d="M15.3595 30C11.0934 30 7.46666 28.502 4.47923 25.5059C1.49307 22.5111 0 18.8745 0 14.5961C0 11.4255 0.904293 8.51412 2.71288 5.86208C4.52147 3.21004 7.08779 1.30252 10.4118 0.139525C10.8035 0.00217362 11.1465 -0.0337693 11.4409 0.0316973C11.7366 0.0958803 11.9804 0.223605 12.1724 0.41487C12.3644 0.606135 12.4867 0.85003 12.5391 1.14656C12.5929 1.44565 12.5532 1.7595 12.4201 2.08812C12.1718 2.70042 11.9913 3.32364 11.8787 3.95777C11.7673 4.5919 11.7117 5.24977 11.7117 5.93139C11.7117 9.36261 12.9039 12.2746 15.2885 14.6673C17.6744 17.0588 20.5779 18.2545 23.9993 18.2545C24.8927 18.2545 25.7106 18.1595 26.453 17.9695C27.1954 17.7796 27.827 17.6255 28.348 17.5074C28.6257 17.4561 28.8817 17.4625 29.1159 17.5267C29.3463 17.5922 29.5319 17.7051 29.6727 17.8656C29.8212 18.026 29.9217 18.2237 29.9741 18.4586C30.0279 18.6922 29.9978 18.9599 29.8839 19.2616C28.9687 22.4065 27.1749 24.9828 24.5023 26.9905C21.831 28.9968 18.7834 30 15.3595 30Z" fill="white"/>
</svg>
