<svg width="27" height="30" viewBox="0 0 27 30" fill="none" xmlns="http://www.w3.org/2000/svg">
<path d="M1 7.22222H26ZM10.375 13.4444V22.7778ZM16.625 13.4444V22.7778ZM2.5625 7.22222L4.125 25.8889C4.125 26.714 4.45424 27.5053 5.04029 28.0888C5.62634 28.6722 6.4212 29 7.25 29H19.75C20.5788 29 21.3737 28.6722 21.9597 28.0888C22.5458 27.5053 22.875 26.714 22.875 25.8889L24.4375 7.22222M8.8125 7.22222V2.55556C8.8125 2.143 8.97712 1.74733 9.27015 1.45561C9.56317 1.16389 9.9606 1 10.375 1H16.625C17.0394 1 17.4368 1.16389 17.7299 1.45561C18.0229 1.74733 18.1875 2.143 18.1875 2.55556V7.22222" fill=""/>
<path d="M1 7.22222H26M10.375 13.4444V22.7778M16.625 13.4444V22.7778M2.5625 7.22222L4.125 25.8889C4.125 26.714 4.45424 27.5053 5.04029 28.0888C5.62634 28.6722 6.4212 29 7.25 29H19.75C20.5788 29 21.3737 28.6722 21.9597 28.0888C22.5458 27.5053 22.875 26.714 22.875 25.8889L24.4375 7.22222M8.8125 7.22222V2.55556C8.8125 2.143 8.97712 1.74733 9.27015 1.45561C9.56317 1.16389 9.9606 1 10.375 1H16.625C17.0394 1 17.4368 1.16389 17.7299 1.45561C18.0229 1.74733 18.1875 2.143 18.1875 2.55556V7.22222" stroke="" stroke-width="2" stroke-linecap="round" stroke-linejoin="round"/>
</svg>
