<svg width="17" height="25" viewBox="0 0 17 25" fill="none" xmlns="http://www.w3.org/2000/svg">
<path d="M2 1.66671L2 23.3334L2 1.66671Z" fill="#256FFF"/>
<path d="M2 1.66671L2 23.3334" stroke="#256FFF" stroke-width="3" stroke-linecap="round" stroke-linejoin="round"/>
<path d="M8.68361 12.5088L16.5963 22.1985C16.8654 22.5281 16.9957 22.9126 16.9871 23.3521C16.9785 23.7915 16.8392 24.176 16.5694 24.5056C16.3002 24.8352 15.9862 25 15.6274 25C15.2685 25 14.9545 24.8352 14.6854 24.5056L6.39593 14.3874C6.18062 14.1238 6.01914 13.8271 5.91148 13.4976C5.80383 13.168 5.75 12.8384 5.75 12.5088C5.75 12.1792 5.80383 11.8496 5.91148 11.5201C6.01914 11.1905 6.18062 10.8939 6.39593 10.6302L14.6854 0.479045C14.9545 0.149462 15.2732 -0.0100561 15.6414 0.000490542C16.0096 0.0110372 16.3279 0.181541 16.5963 0.512003C16.8654 0.841586 17 1.2261 17 1.66554C17 2.10499 16.8654 2.4895 16.5963 2.81908L8.68361 12.5088Z" fill="#256FFF"/>
</svg>
