<svg width="30" height="35" viewBox="0 0 30 35" fill="none" xmlns="http://www.w3.org/2000/svg">
<path d="M16.0879 35C4.34469 35 1.2071 22.3931 2.62536 14.133C2.68709 13.7735 3.14468 13.6699 3.34406 13.9718C3.96151 14.9064 4.51095 16.2563 5.42132 16.1392C6.78961 15.963 7.73756 3.52881 15.847 0.0301502C16.1044 -0.0808692 16.3737 0.129774 16.3454 0.415601C15.9444 4.46742 18.3066 10.2682 22.4917 10.2682C24.8908 10.2682 26.5322 8.29634 27.3524 6.31605C27.6016 5.71451 28.455 5.79033 28.5979 6.42757C30.0615 12.9556 33.9741 35 16.0879 35Z" fill="#FF8F1F"/>
<path d="M11.9708 22.8436C12.247 22.6046 12.6662 22.7686 12.7289 23.1344C12.8756 23.9904 13.3581 25.4614 14.9405 25.4614C16.844 25.4614 18.1358 20.0671 18.4746 18.4807C18.5304 18.2197 18.7774 18.0424 19.0317 18.0957C23.7888 19.0918 26.1018 35 15.6422 35C8.02775 35 9.75278 24.7625 11.9708 22.8436ZM24.9697 5.61561C25.1374 4.26517 22.7436 7.95877 22.7436 7.95877C22.7436 7.95877 24.5686 8.8465 24.9697 5.61561ZM0.850137 25.7555C0.900593 25.1806 0.182449 23.6414 0.0552997 24.2508C-0.249036 25.7089 0.799681 26.3305 0.850137 25.7555Z" fill="#FFB636"/>
<path d="M20.0034 24.1171C19.8251 23.3509 19.1854 25.1305 19.2657 25.8554C19.3461 26.5802 20.4301 25.9502 20.0034 24.1171Z" fill="#FFD469"/>
</svg>
