<svg width="72" height="64" viewBox="0 0 72 64" fill="none" xmlns="http://www.w3.org/2000/svg">
<path d="M66.8577 41.1429L36.0003 38.8571L5.14285 41.1429L0.0513696 61.4651C-0.23149 63.216 2.55854 62.8571 3.85712 62.8571H68.1434C69.442 62.8571 72.2321 63.216 71.9492 61.4651L66.8577 41.1429Z" fill="#D3D3D3"/>
<path d="M64.2864 0H7.7144C6.3001 0 5.14294 1.02857 5.14294 2.28571V41.12H66.8578V2.28571C66.8578 1.02857 65.7007 0 64.2864 0Z" fill="#7167A4"/>
<path d="M7.71448 38.2629V2.85714C7.71448 2.53714 7.99734 2.28571 8.35734 2.28571H63.6436C64.0036 2.28571 64.2864 2.53714 64.2864 2.85714V38.2629C64.2864 38.5829 64.0036 38.8343 63.6436 38.8343H8.35734C7.99734 38.8343 7.71448 38.5829 7.71448 38.2629Z" fill="#26C9FC"/>
<path fill-rule="evenodd" clip-rule="evenodd" d="M64.9809 44.0686L66.8323 51.4971C66.863 51.6235 66.8615 51.7544 66.8279 51.8803C66.7944 52.0061 66.7297 52.1236 66.6385 52.2244C66.5473 52.3251 66.432 52.4065 66.3009 52.4626C66.1699 52.5187 66.0264 52.5481 65.8809 52.5486H6.12034C5.50319 52.5486 5.04033 52.0229 5.1689 51.4971L7.02035 44.0686C7.1232 43.68 7.50892 43.4057 7.97178 43.4057H64.0295C64.4923 43.4057 64.878 43.68 64.9809 44.0686ZM15.9073 51.4286H12.2224L12.5438 49.7143H16.149L15.9099 51.4286H15.9073ZM20.8908 51.4286H17.2033L17.445 49.7143H21.0553L20.8933 51.4286H20.8908ZM25.6171 51.4286H22.1816L22.3411 49.7143H25.6994L25.6171 51.4286ZM30.3743 51.4286H26.9028L26.9851 49.7143H30.4566L30.3743 51.4286ZM35.3578 51.4286H31.6626L31.7423 49.7143H35.3578V51.4286ZM40.3387 51.4286H36.6435V49.7143H40.2589L40.3387 51.4286ZM45.0958 51.4286H41.6244L41.5472 49.7143H45.0161L45.0958 51.4286ZM49.8196 51.4286H46.3841L46.3019 49.7143H49.6602L49.8196 51.4286ZM54.8005 51.4286H51.1105L50.9485 49.7143H54.5588L54.8005 51.4286ZM59.7788 51.4286H56.0939L55.8548 49.7143H59.4548L59.7788 51.4286ZM64.2866 51.4286H61.08L60.7586 49.7143H63.9652L64.2866 51.4286ZM63.4303 46.8571L63.7517 48.5714H60.5451L60.2237 46.8571H63.4303ZM63.0009 44.5714L63.2143 45.7143H60.0103L59.7943 44.5714H63.0009ZM55.1322 44.5714H58.4931L58.7065 45.7143H55.2917L55.1297 44.5714H55.1322ZM50.4676 44.5714H53.8362L53.9956 45.7143H50.5756L50.4676 44.5714ZM46.0627 44.5714H49.1767L49.2847 45.7143H46.1141L46.0627 44.5714ZM41.3055 44.5714H44.777L44.8284 45.7143H41.357L41.3055 44.5714ZM36.6435 44.5714H40.0172L40.0712 45.7143H36.6435V44.5714ZM31.984 44.5714H35.3578V45.7143H31.93L31.984 44.5714ZM27.2268 44.5714H30.6983L30.6417 45.7143H27.1702L27.2268 44.5714ZM22.8245 44.5714H25.9385L25.8871 45.7143H22.7165L22.8245 44.5714ZM18.165 44.5714H21.5336L21.4256 45.7143H18.0056L18.165 44.5714ZM13.5107 44.5714H16.869L16.707 45.7143H13.2947L13.5081 44.5714H13.5107ZM9.00036 44.5714H12.207L11.991 45.7143H8.78693L9.00036 44.5714ZM8.2495 48.5714L8.57093 46.8571H11.7775L11.4561 48.5714H8.2495ZM7.71464 51.4286L8.03607 49.7143H11.2427L10.9212 51.4286H7.71464ZM59.2414 48.5714L58.92 46.8571H55.4511L55.6928 48.5714H59.2414ZM54.3968 48.5714L54.1576 46.8571H50.681L50.843 48.5714H54.3968ZM49.5522 48.5714L49.3902 46.8571H46.1681L46.2504 48.5714H49.5522ZM44.9621 48.5714L44.8824 46.8571H41.411L41.4932 48.5714H44.9621ZM40.2049 48.5714L40.1252 46.8571H36.6435V48.5714H40.2049ZM13.0813 46.8571L12.7598 48.5714H16.3084L16.5501 46.8571H13.0813ZM17.8436 46.8571L17.6044 48.5714H21.1582L21.3202 46.8571H17.8436ZM22.6111 46.8571L22.4491 48.5714H25.7508L25.8331 46.8571H22.6111ZM27.1188 46.8571L27.0391 48.5714H30.5106L30.5877 46.8571H27.1188ZM31.876 46.8571L31.7963 48.5714H35.3578V46.8571H31.876Z" fill="#9B9B9B"/>
<path d="M69.6607 61.7143C70.0863 61.7138 70.5035 61.609 70.8664 61.4114C71.2293 61.2138 71.5239 60.9311 71.7178 60.5943L71.9492 61.4629L71.957 61.5154C72.0228 61.8169 72.013 62.1276 71.9282 62.4254C71.8434 62.7231 71.6857 63.0005 71.4663 63.2379C71.247 63.4752 70.9714 63.6665 70.6593 63.7983C70.3472 63.93 70.0062 63.9989 69.6607 64H2.34002C1.0543 64 0 63.0629 0 61.92C0 61.76 0.0257145 61.6229 0.0771435 61.4857L0.28286 60.6171C0.668577 61.2571 1.44001 61.7143 2.34002 61.7143H69.6607ZM22.6802 59.4057H49.3205C49.7319 59.4057 50.0405 59.0629 49.9376 58.6971L48.9605 55.2686C48.9243 55.1466 48.8446 55.0383 48.7334 54.96C48.6221 54.8817 48.4852 54.8376 48.3433 54.8343H23.6574C23.3745 54.8343 23.1174 55.0171 23.0402 55.2686L22.0631 58.6971C21.9602 59.0629 22.2688 59.4057 22.6802 59.4057Z" fill="#9B9B9B"/>
</svg>
