<svg width="26" height="26" viewBox="0 0 26 26" fill="none" xmlns="http://www.w3.org/2000/svg">
<path d="M24.143 16.7143L13.0001 15.7857L1.8571 16.7143L0.0185128 24.9702C-0.083631 25.6815 0.923879 25.5357 1.39281 25.5357H24.6073C25.0763 25.5357 26.0838 25.6815 25.9816 24.9702L24.143 16.7143Z" fill="#D3D3D3"/>
<path d="M23.2145 0H2.78576C2.27504 0 1.85718 0.417857 1.85718 0.928571V16.705H24.1431V0.928571C24.1431 0.417857 23.7252 0 23.2145 0Z" fill="#7167A4"/>
<path d="M2.78574 15.5443V1.16072C2.78574 1.03072 2.88788 0.928574 3.01788 0.928574H22.9824C23.1124 0.928574 23.2145 1.03072 23.2145 1.16072V15.5443C23.2145 15.6743 23.1124 15.7764 22.9824 15.7764H3.01788C2.88788 15.7764 2.78574 15.6743 2.78574 15.5443Z" fill="#26C9FC"/>
<path fill-rule="evenodd" clip-rule="evenodd" d="M23.4653 17.9029L24.1339 20.9207C24.1449 20.9721 24.1444 21.0252 24.1323 21.0764C24.1202 21.1275 24.0968 21.1752 24.0639 21.2162C24.0309 21.2571 23.9893 21.2902 23.942 21.3129C23.8946 21.3357 23.8428 21.3477 23.7903 21.3479H2.21008C1.98722 21.3479 1.82008 21.1343 1.8665 20.9207L2.53508 17.9029C2.57223 17.745 2.71151 17.6336 2.87866 17.6336H23.1217C23.2889 17.6336 23.4281 17.745 23.4653 17.9029ZM5.74426 20.8929H4.4136L4.52967 20.1964H5.83154L5.74518 20.8929H5.74426ZM7.54384 20.8929H6.21226L6.29955 20.1964H7.60327L7.54477 20.8929H7.54384ZM9.25057 20.8929H8.00999L8.06756 20.1964H9.28029L9.25057 20.8929ZM10.9684 20.8929H9.71486L9.74458 20.1964H10.9982L10.9684 20.8929ZM12.768 20.8929H11.4337L11.4625 20.1964H12.768V20.8929ZM14.5667 20.8929H13.2323V20.1964H14.5379L14.5667 20.8929ZM16.2846 20.8929H15.031L15.0031 20.1964H16.2558L16.2846 20.8929ZM17.9904 20.8929H16.7498L16.7201 20.1964H17.9328L17.9904 20.8929ZM19.789 20.8929H18.4565L18.398 20.1964H19.7017L19.789 20.8929ZM21.5868 20.8929H20.2561L20.1698 20.1964H21.4698L21.5868 20.8929ZM23.2146 20.8929H22.0566L21.9406 20.1964H23.0985L23.2146 20.8929ZM22.9053 19.0357L23.0214 19.7321H21.8635L21.7474 19.0357H22.9053ZM22.7503 18.1071L22.8273 18.5714H21.6703L21.5923 18.1071H22.7503ZM19.9088 18.1071H21.1225L21.1995 18.5714H19.9664L19.9079 18.1071H19.9088ZM18.2244 18.1071H19.4408L19.4984 18.5714H18.2634L18.2244 18.1071ZM16.6337 18.1071H17.7582L17.7972 18.5714H16.6523L16.6337 18.1071ZM14.9158 18.1071H16.1694L16.188 18.5714H14.9344L14.9158 18.1071ZM13.2323 18.1071H14.4506L14.4701 18.5714H13.2323V18.1071ZM11.5497 18.1071H12.768V18.5714H11.5302L11.5497 18.1071ZM9.83187 18.1071H11.0854L11.065 18.5714H9.81144L9.83187 18.1071ZM8.24214 18.1071H9.36665L9.34808 18.5714H8.20314L8.24214 18.1071ZM6.55955 18.1071H7.77599L7.73699 18.5714H6.50198L6.55955 18.1071ZM4.87882 18.1071H6.09155L6.03304 18.5714H4.80082L4.87789 18.1071H4.87882ZM3.25009 18.1071H4.40803L4.33003 18.5714H3.17302L3.25009 18.1071ZM2.97894 19.7321L3.09502 19.0357H4.25296L4.13688 19.7321H2.97894ZM2.7858 20.8929L2.90187 20.1964H4.05981L3.94374 20.8929H2.7858ZM21.3927 19.7321L21.2766 19.0357H20.024L20.1112 19.7321H21.3927ZM19.6432 19.7321L19.5569 19.0357H18.3014L18.3599 19.7321H19.6432ZM17.8938 19.7321L17.8353 19.0357H16.6718L16.7015 19.7321H17.8938ZM16.2363 19.7321L16.2075 19.0357H14.9539L14.9836 19.7321H16.2363ZM14.5184 19.7321L14.4896 19.0357H13.2323V19.7321H14.5184ZM4.72375 19.0357L4.60767 19.7321H5.88911L5.9764 19.0357H4.72375ZM6.44348 19.0357L6.35712 19.7321H7.64042L7.69892 19.0357H6.44348ZM8.16506 19.0357L8.10656 19.7321H9.29886L9.32857 19.0357H8.16506ZM9.79286 19.0357L9.76408 19.7321H11.0177L11.0455 19.0357H9.79286ZM11.5107 19.0357L11.482 19.7321H12.768V19.0357H11.5107Z" fill="#9B9B9B"/>
<path d="M25.1552 25.0714C25.3089 25.0712 25.4596 25.0286 25.5906 24.9484C25.7217 24.8681 25.8281 24.7532 25.8981 24.6164L25.9817 24.9693L25.9845 24.9906C26.0082 25.1131 26.0047 25.2394 25.9741 25.3603C25.9434 25.4813 25.8865 25.594 25.8073 25.6904C25.7281 25.7868 25.6286 25.8645 25.5159 25.9181C25.4031 25.9716 25.28 25.9996 25.1552 26H0.845008C0.380718 26 0 25.6193 0 25.155C0 25.09 0.00928578 25.0343 0.0278574 24.9786L0.102144 24.6257C0.241431 24.8857 0.520005 25.0714 0.845008 25.0714H25.1552ZM8.19008 24.1336H17.8102C17.9587 24.1336 18.0702 23.9943 18.033 23.8457L17.6802 22.4529C17.6671 22.4033 17.6383 22.3593 17.5982 22.3275C17.558 22.2957 17.5085 22.2778 17.4573 22.2764H8.54294C8.44079 22.2764 8.34794 22.3507 8.32008 22.4529L7.96722 23.8457C7.93008 23.9943 8.0415 24.1336 8.19008 24.1336Z" fill="#9B9B9B"/>
</svg>
