<svg width="17" height="25" viewBox="0 0 17 25" fill="none" xmlns="http://www.w3.org/2000/svg">
<path d="M15 23.3333V1.66663V23.3333Z" fill="#256FFF"/>
<path d="M15 23.3333V1.66663" stroke="#256FFF" stroke-width="3" stroke-linecap="round" stroke-linejoin="round"/>
<path d="M8.31639 12.4912L0.403708 2.80145C0.13457 2.47187 0.00430584 2.08736 0.0129185 1.64791C0.0215302 1.20847 0.160766 0.823956 0.430622 0.494373C0.69976 0.164791 1.01376 0 1.37261 0C1.73146 0 2.04545 0.164791 2.31459 0.494373L10.6041 10.6126C10.8194 10.8762 10.9809 11.1729 11.0885 11.5024C11.1962 11.832 11.25 12.1616 11.25 12.4912C11.25 12.8208 11.1962 13.1504 11.0885 13.4799C10.9809 13.8095 10.8194 14.1061 10.6041 14.3698L2.31459 24.521C2.04545 24.8505 1.72679 25.0101 1.35861 24.9995C0.99043 24.989 0.67213 24.8185 0.403708 24.488C0.13457 24.1584 0 23.7739 0 23.3345C0 22.895 0.13457 22.5105 0.403708 22.1809L8.31639 12.4912Z" fill="#256FFF"/>
</svg>
