<svg width="15" height="30" viewBox="0 0 15 30" fill="none" xmlns="http://www.w3.org/2000/svg">
<path d="M3.91148 15.0106L14.4617 26.6383C14.8206 27.0338 14.9943 27.4952 14.9828 28.0225C14.9713 28.5498 14.7856 29.0113 14.4258 29.4068C14.067 29.8023 13.6483 30 13.1699 30C12.6914 30 12.2727 29.8023 11.9139 29.4068L0.861245 17.2649C0.574163 16.9485 0.358852 16.5926 0.215311 16.1971C0.0717705 15.8016 0 15.4061 0 15.0106C0 14.6151 0.0717705 14.2196 0.215311 13.8241C0.358852 13.4286 0.574163 13.0726 0.861245 12.7562L11.9139 0.574853C12.2727 0.179354 12.6976 -0.0120673 13.1885 0.00058865C13.6794 0.0132446 14.1038 0.21785 14.4617 0.614404C14.8206 1.0099 15 1.47132 15 1.99865C15 2.52598 14.8206 2.9874 14.4617 3.3829L3.91148 15.0106Z" fill="#696969"/>
</svg>
