<svg width="279" height="57" viewBox="0 0 279 57" fill="none" xmlns="http://www.w3.org/2000/svg">
<rect y="5" width="53" height="38" rx="10" fill="#4375F5"/>
<rect x="23" y="43" width="6" height="8" fill="#4375F5"/>
<rect x="14" y="51" width="25" height="6" rx="3" fill="#4375F5"/>
<circle cx="44" cy="25" r="24.25" fill="#4375F5" stroke="white" stroke-width="1.5"/>
<circle cx="44" cy="25" r="15" fill="white"/>
<path d="M53 43.8145L59.3891 38.9999L67.2127 49.3822C68.2098 50.7054 67.9454 52.5864 66.6222 53.5835L65.0249 54.7872C63.7017 55.7843 61.8207 55.5199 60.8236 54.1967L53 43.8145Z" fill="#4375F5"/>
<path d="M50 3H69C69.5523 3 70 3.44772 70 4C70 4.55228 69.5523 5 69 5H50V3Z" fill="#4375F5"/>
<path d="M62 37H70.5C71.3284 37 72 37.6716 72 38.5C72 39.3284 71.3284 40 70.5 40H62V37Z" fill="#4375F5"/>
<path d="M66 29H70C70.5523 29 71 29.4477 71 30C71 30.5523 70.5523 31 70 31H66V29Z" fill="#4375F5"/>
<path d="M66 50H70C70.5523 50 71 50.4477 71 51V51.5C71 52.0523 70.5523 52.5 70 52.5H66V50Z" fill="#4375F5"/>
<path d="M61 10H69.5C70.3284 10 71 10.6716 71 11.5C71 12.3284 70.3284 13 69.5 13H61V10Z" fill="#4375F5"/>
<path d="M88.704 42.42C88.368 42.42 88.018 42.364 87.654 42.252C87.318 42.14 87.038 41.874 86.814 41.454C86.59 41.034 86.478 40.39 86.478 39.522C86.478 38.962 86.52 38.248 86.604 37.38C86.716 36.484 86.828 35.616 86.94 34.776C87.164 33.376 87.36 31.836 87.528 30.156C87.724 28.476 87.822 26.81 87.822 25.158C87.822 24.57 87.808 23.954 87.78 23.31C87.752 22.666 87.696 22.05 87.612 21.462C87.444 21.546 87.248 21.63 87.024 21.714C86.828 21.77 86.66 21.798 86.52 21.798C86.24 21.798 86.044 21.658 85.932 21.378C85.848 21.07 85.806 20.72 85.806 20.328C85.806 19.432 86.016 18.718 86.436 18.186C86.884 17.626 87.542 17.122 88.41 16.674C89.558 16.03 90.776 15.568 92.064 15.288C93.38 14.98 94.626 14.826 95.802 14.826C97.538 14.826 99.078 15.134 100.422 15.75C101.766 16.366 102.816 17.234 103.572 18.354C104.328 19.474 104.706 20.818 104.706 22.386C104.706 24.01 104.314 25.452 103.53 26.712C102.774 27.972 101.794 29.008 100.59 29.82C99.414 30.604 98.21 31.122 96.978 31.374C97.426 32.074 97.902 32.774 98.406 33.474C98.938 34.174 99.47 34.804 100.002 35.364C101.598 37.016 103.222 37.842 104.874 37.842C105.322 37.842 105.714 37.814 106.05 37.758C106.218 37.73 106.358 37.8 106.47 37.968C106.61 38.108 106.68 38.402 106.68 38.85C106.68 39.382 106.568 39.928 106.344 40.488C106.12 41.02 105.742 41.468 105.21 41.832C104.678 42.196 103.95 42.378 103.026 42.378C101.934 42.378 100.884 42.014 99.876 41.286C98.896 40.558 97.986 39.634 97.146 38.514C96.306 37.366 95.55 36.162 94.878 34.902C94.234 33.642 93.688 32.48 93.24 31.416C93.128 31.108 93.03 30.814 92.946 30.534C92.862 30.226 92.82 29.932 92.82 29.652C92.82 29.176 92.974 28.784 93.282 28.476C93.506 28.252 93.814 28.098 94.206 28.014C94.626 27.93 95.228 27.888 96.012 27.888C97.496 27.888 98.7 27.482 99.624 26.67C100.548 25.858 101.01 24.808 101.01 23.52C101.01 22.12 100.478 21.098 99.414 20.454C98.378 19.81 97.104 19.488 95.592 19.488C94.36 19.488 93.072 19.684 91.728 20.076C91.644 21.896 91.448 23.982 91.14 26.334C90.972 27.734 90.818 29.12 90.678 30.492C90.566 31.864 90.51 33.11 90.51 34.23C90.51 35.21 90.594 36.078 90.762 36.834C90.958 37.562 91.336 38.192 91.896 38.724C92.288 39.116 92.484 39.536 92.484 39.984C92.484 40.6 92.134 41.16 91.434 41.664C90.734 42.168 89.824 42.42 88.704 42.42ZM204.744 42.42C204.212 42.42 203.848 42.266 203.652 41.958C203.456 41.65 203.358 41.314 203.358 40.95C203.358 39.214 203.526 37.226 203.862 34.986C204.226 32.746 204.66 30.52 205.164 28.308C205.612 26.432 206.102 24.682 206.634 23.058C207.194 21.434 207.684 20.104 208.104 19.068C208.72 17.612 209.42 16.506 210.204 15.75C211.016 14.966 211.954 14.574 213.018 14.574C213.802 14.574 214.502 14.84 215.118 15.372C215.734 15.876 216.098 16.8 216.21 18.144C216.378 19.768 216.574 21.406 216.798 23.058C217.022 24.71 217.274 26.222 217.554 27.594C217.834 28.938 218.128 29.974 218.436 30.702C218.688 31.346 219.052 31.668 219.528 31.668C220.06 31.668 220.522 31.332 220.914 30.66C221.278 30.044 221.67 29.204 222.09 28.14C222.51 27.076 222.916 25.956 223.308 24.78C223.728 23.576 224.092 22.484 224.4 21.504C224.764 20.44 225.17 19.376 225.618 18.312C226.094 17.22 226.696 16.324 227.424 15.624C228.152 14.896 229.062 14.532 230.154 14.532C231.162 14.532 231.876 14.882 232.296 15.582C232.744 16.254 232.968 17.332 232.968 18.816C232.968 19.964 232.926 21.168 232.842 22.428C232.814 23.156 232.772 23.912 232.716 24.696C232.688 25.452 232.674 26.236 232.674 27.048C232.674 28.308 232.73 29.638 232.842 31.038C232.982 32.438 233.234 33.754 233.598 34.986C233.99 36.218 234.564 37.254 235.32 38.094C235.544 38.29 235.74 38.514 235.908 38.766C236.104 39.018 236.202 39.298 236.202 39.606C236.202 40.306 235.824 40.95 235.068 41.538C234.34 42.098 233.5 42.378 232.548 42.378C231.68 42.378 231.036 42.098 230.616 41.538C230.196 40.978 229.86 40.222 229.608 39.27C229.328 38.094 229.132 36.834 229.02 35.49C228.908 34.146 228.852 32.844 228.852 31.584C228.852 29.568 228.922 27.72 229.062 26.04C229.23 24.332 229.314 23.072 229.314 22.26C229.314 21.812 229.272 21.49 229.188 21.294C229.104 21.07 228.894 20.958 228.558 20.958C228.166 20.958 227.83 21.14 227.55 21.504C227.298 21.84 227.088 22.316 226.92 22.932C226.556 24.108 226.15 25.368 225.702 26.712C225.254 28.056 224.778 29.372 224.274 30.66C223.798 31.948 223.28 33.096 222.72 34.104C222.076 35.28 221.376 36.078 220.62 36.498C219.892 36.89 219.15 37.086 218.394 37.086C217.218 37.086 216.322 36.722 215.706 35.994C215.118 35.238 214.684 34.412 214.404 33.516C214.04 32.312 213.704 30.744 213.396 28.812C213.088 26.852 212.864 24.654 212.724 22.218C212.668 21.182 212.332 20.664 211.716 20.664C211.044 20.664 210.512 21.168 210.12 22.176C209.784 23.184 209.462 24.374 209.154 25.746C208.846 27.09 208.594 28.504 208.398 29.988C208.23 31.444 208.146 32.886 208.146 34.314C208.146 35.518 208.188 36.568 208.272 37.464C208.384 38.36 208.44 39.2 208.44 39.984C208.44 40.544 208.216 41.006 207.768 41.37C207.348 41.734 206.844 42 206.256 42.168C205.668 42.336 205.164 42.42 204.744 42.42Z" fill="#4375F5"/>
<path d="M115.61 42.546C113.482 42.546 111.816 41.944 110.612 40.74C109.436 39.508 108.848 37.8 108.848 35.616C108.848 33.628 109.282 31.822 110.15 30.198C111.018 28.574 112.18 27.286 113.636 26.334C115.12 25.354 116.744 24.864 118.508 24.864C120.188 24.864 121.532 25.284 122.54 26.124C123.548 26.936 124.052 28.028 124.052 29.4C124.052 30.492 123.716 31.5 123.044 32.424C122.372 33.348 121.476 34.09 120.356 34.65C119.236 35.182 117.99 35.448 116.618 35.448C114.938 35.448 113.566 35.07 112.502 34.314C112.53 35.602 112.964 36.638 113.804 37.422C114.672 38.206 115.778 38.598 117.122 38.598C117.934 38.598 118.76 38.458 119.6 38.178C120.468 37.87 121.21 37.464 121.826 36.96C122.218 36.624 122.582 36.456 122.918 36.456C123.198 36.456 123.422 36.554 123.59 36.75C123.786 36.918 123.884 37.142 123.884 37.422C123.884 38.038 123.352 38.85 122.288 39.858C120.412 41.65 118.186 42.546 115.61 42.546ZM116.24 32.676C117.248 32.676 118.088 32.466 118.76 32.046C119.432 31.626 119.768 31.094 119.768 30.45C119.768 29.918 119.544 29.512 119.096 29.232C118.648 28.924 118.032 28.77 117.248 28.77C116.212 28.77 115.302 29.05 114.518 29.61C113.762 30.142 113.216 30.898 112.88 31.878C113.272 32.13 113.776 32.326 114.392 32.466C115.008 32.606 115.624 32.676 116.24 32.676ZM133.19 42.588C132.434 42.588 131.776 42.364 131.216 41.916C130.684 41.44 130.362 40.572 130.25 39.312C130.194 38.36 130.068 37.31 129.872 36.162C129.704 35.014 129.48 33.922 129.2 32.886C128.92 31.85 128.598 31.038 128.234 30.45C128.038 30.142 127.814 29.918 127.562 29.778C127.338 29.61 126.988 29.498 126.512 29.442C126.204 29.414 125.994 29.316 125.882 29.148C125.77 28.98 125.714 28.714 125.714 28.35C125.714 27.202 126.022 26.362 126.638 25.83C127.282 25.27 128.01 24.99 128.822 24.99C129.662 24.99 130.362 25.27 130.922 25.83C131.482 26.362 131.916 27.076 132.224 27.972C132.532 28.868 132.742 29.862 132.854 30.954C132.994 32.018 133.064 33.096 133.064 34.188C133.064 34.636 133.05 35.112 133.022 35.616C133.022 36.092 133.022 36.498 133.022 36.834C133.022 37.142 133.078 37.38 133.19 37.548C133.33 37.716 133.582 37.8 133.946 37.8C134.394 37.8 134.912 37.674 135.5 37.422C136.088 37.142 136.662 36.75 137.222 36.246C137.81 35.742 138.286 35.154 138.65 34.482C139.042 33.782 139.238 33.012 139.238 32.172C139.238 31.696 139.154 31.192 138.986 30.66C138.846 30.128 138.608 29.68 138.272 29.316C137.936 28.952 137.684 28.672 137.516 28.476C137.376 28.252 137.306 28 137.306 27.72C137.306 27.216 137.53 26.754 137.978 26.334C138.454 25.914 139 25.578 139.616 25.326C140.26 25.074 140.82 24.948 141.296 24.948C142.108 24.948 142.626 25.284 142.85 25.956C143.074 26.628 143.186 27.37 143.186 28.182C143.186 29.722 142.906 31.332 142.346 33.012C141.786 34.692 141.03 36.26 140.078 37.716C139.126 39.172 138.048 40.348 136.844 41.244C135.668 42.14 134.45 42.588 133.19 42.588ZM149.581 21.126C148.797 21.098 148.167 20.86 147.691 20.412C147.215 19.964 146.977 19.334 146.977 18.522C147.005 17.654 147.299 16.954 147.859 16.422C148.419 15.862 149.133 15.596 150.001 15.624C150.813 15.652 151.443 15.89 151.891 16.338C152.367 16.786 152.591 17.416 152.563 18.228C152.535 19.068 152.255 19.768 151.723 20.328C151.191 20.86 150.477 21.126 149.581 21.126ZM149.623 42.42C148.783 42.42 148.125 42.196 147.649 41.748C147.173 41.272 146.935 40.474 146.935 39.354C146.935 38.71 146.991 38.08 147.103 37.464C147.243 36.848 147.397 36.246 147.565 35.658C147.761 35.042 147.915 34.412 148.027 33.768C148.167 33.124 148.237 32.438 148.237 31.71C148.237 31.206 148.167 30.73 148.027 30.282C147.887 29.806 147.579 29.456 147.103 29.232C146.739 29.036 146.417 28.84 146.137 28.644C145.885 28.42 145.759 28.14 145.759 27.804C145.759 27.412 145.941 26.992 146.305 26.544C146.669 26.096 147.145 25.718 147.733 25.41C148.349 25.074 148.979 24.906 149.623 24.906C150.323 24.906 150.827 25.088 151.135 25.452C151.471 25.816 151.695 26.278 151.807 26.838C151.919 27.398 151.975 27.972 151.975 28.56C151.975 29.456 151.905 30.338 151.765 31.206C151.625 32.046 151.485 32.83 151.345 33.558C151.233 34.09 151.149 34.58 151.093 35.028C151.037 35.476 151.009 35.896 151.009 36.288C151.009 36.988 151.177 37.52 151.513 37.884C151.849 38.22 152.325 38.542 152.941 38.85C153.193 38.99 153.319 39.2 153.319 39.48C153.319 39.704 153.207 40.054 152.983 40.53C152.759 41.006 152.367 41.44 151.807 41.832C151.275 42.224 150.547 42.42 149.623 42.42ZM163.065 42.546C160.937 42.546 159.271 41.944 158.067 40.74C156.891 39.508 156.303 37.8 156.303 35.616C156.303 33.628 156.737 31.822 157.605 30.198C158.473 28.574 159.635 27.286 161.091 26.334C162.575 25.354 164.199 24.864 165.963 24.864C167.643 24.864 168.987 25.284 169.995 26.124C171.003 26.936 171.507 28.028 171.507 29.4C171.507 30.492 171.171 31.5 170.499 32.424C169.827 33.348 168.931 34.09 167.811 34.65C166.691 35.182 165.445 35.448 164.073 35.448C162.393 35.448 161.021 35.07 159.957 34.314C159.985 35.602 160.419 36.638 161.259 37.422C162.127 38.206 163.233 38.598 164.577 38.598C165.389 38.598 166.215 38.458 167.055 38.178C167.923 37.87 168.665 37.464 169.281 36.96C169.673 36.624 170.037 36.456 170.373 36.456C170.653 36.456 170.877 36.554 171.045 36.75C171.241 36.918 171.339 37.142 171.339 37.422C171.339 38.038 170.807 38.85 169.743 39.858C167.867 41.65 165.641 42.546 163.065 42.546ZM163.695 32.676C164.703 32.676 165.543 32.466 166.215 32.046C166.887 31.626 167.223 31.094 167.223 30.45C167.223 29.918 166.999 29.512 166.551 29.232C166.103 28.924 165.487 28.77 164.703 28.77C163.667 28.77 162.757 29.05 161.973 29.61C161.217 30.142 160.671 30.898 160.335 31.878C160.727 32.13 161.231 32.326 161.847 32.466C162.463 32.606 163.079 32.676 163.695 32.676ZM180.477 42.588C179.693 42.588 179.021 42.364 178.461 41.916C177.929 41.44 177.621 40.572 177.537 39.312C177.481 38.36 177.355 37.296 177.159 36.12C176.991 34.944 176.781 33.838 176.529 32.802C176.277 31.766 175.983 30.982 175.647 30.45C175.451 30.142 175.227 29.918 174.975 29.778C174.751 29.61 174.401 29.498 173.925 29.442C173.421 29.414 173.169 29.05 173.169 28.35C173.169 27.202 173.477 26.362 174.093 25.83C174.709 25.27 175.409 24.99 176.193 24.99C177.033 24.99 177.719 25.27 178.251 25.83C178.783 26.362 179.189 27.09 179.469 28.014C179.777 28.91 179.987 29.918 180.099 31.038C180.239 32.158 180.309 33.292 180.309 34.44C180.309 34.86 180.295 35.28 180.267 35.7C180.267 36.092 180.267 36.484 180.267 36.876C180.267 37.156 180.323 37.394 180.435 37.59C180.547 37.758 180.827 37.842 181.275 37.842C181.891 37.842 182.619 37.688 183.459 37.38C184.299 37.044 185.027 36.498 185.643 35.742C186.287 34.986 186.609 33.978 186.609 32.718C186.609 32.074 186.511 31.542 186.315 31.122C186.119 30.674 185.853 30.254 185.517 29.862C185.405 29.722 185.307 29.582 185.223 29.442C185.139 29.302 185.097 29.134 185.097 28.938C185.097 28.406 185.307 27.986 185.727 27.678C186.175 27.342 186.665 27.104 187.197 26.964C187.757 26.796 188.219 26.712 188.583 26.712C188.947 26.712 189.227 26.81 189.423 27.006C189.647 27.174 189.815 27.524 189.927 28.056C190.039 28.42 190.123 28.826 190.179 29.274C190.235 29.694 190.263 30.184 190.263 30.744C190.263 31.612 190.221 32.312 190.137 32.844C190.081 33.376 190.011 33.852 189.927 34.272C189.843 34.636 189.773 35 189.717 35.364C189.689 35.7 189.675 36.106 189.675 36.582C189.675 37.086 189.773 37.422 189.969 37.59C190.165 37.758 190.473 37.842 190.893 37.842C192.489 37.842 193.791 37.296 194.799 36.204C195.807 35.084 196.311 33.726 196.311 32.13C196.311 31.57 196.227 31.052 196.059 30.576C195.891 30.072 195.597 29.596 195.177 29.148C194.953 28.868 194.771 28.644 194.631 28.476C194.491 28.28 194.421 28.042 194.421 27.762C194.421 27.258 194.645 26.796 195.093 26.376C195.569 25.956 196.115 25.62 196.731 25.368C197.375 25.088 197.949 24.948 198.453 24.948C199.209 24.948 199.699 25.298 199.923 25.998C200.147 26.698 200.259 27.496 200.259 28.392C200.259 29.904 200.035 31.486 199.587 33.138C199.167 34.762 198.551 36.302 197.739 37.758C196.927 39.186 195.933 40.348 194.757 41.244C193.581 42.14 192.251 42.588 190.767 42.588C189.255 42.588 188.219 42.154 187.659 41.286C187.099 40.418 186.861 39.368 186.945 38.136C186.105 39.424 185.111 40.488 183.963 41.328C182.843 42.168 181.681 42.588 180.477 42.588ZM245.959 42.546C244.027 42.546 242.473 42.028 241.297 40.992C240.149 39.928 239.575 38.374 239.575 36.33C239.575 35.378 239.701 34.454 239.953 33.558C240.233 32.662 240.597 31.822 241.045 31.038C240.597 31.318 240.261 31.458 240.037 31.458C239.701 31.458 239.463 31.276 239.323 30.912C239.211 30.52 239.155 30.142 239.155 29.778C239.155 29.134 239.281 28.63 239.533 28.266C239.813 27.874 240.079 27.58 240.331 27.384C240.919 26.88 241.843 26.334 243.103 25.746C244.363 25.13 245.875 24.822 247.639 24.822C250.047 24.822 251.909 25.494 253.225 26.838C254.569 28.182 255.241 30.058 255.241 32.466C255.241 34.342 254.849 36.05 254.065 37.59C253.281 39.102 252.189 40.306 250.789 41.202C249.417 42.098 247.807 42.546 245.959 42.546ZM247.261 38.262C248.661 38.262 249.837 37.828 250.789 36.96C251.769 36.064 252.259 34.888 252.259 33.432C252.259 31.92 251.769 30.842 250.789 30.198C249.809 29.554 248.675 29.232 247.387 29.232C246.799 29.232 246.267 29.288 245.791 29.4C245.315 29.512 244.867 29.652 244.447 29.82C244.055 30.38 243.705 31.01 243.397 31.71C243.089 32.41 242.935 33.18 242.935 34.02C242.935 35.42 243.355 36.484 244.195 37.212C245.035 37.912 246.057 38.262 247.261 38.262ZM263.685 42.546C262.005 42.546 260.647 42.028 259.611 40.992C258.603 39.928 258.099 38.416 258.099 36.456C258.099 35.056 258.365 33.67 258.897 32.298C259.457 30.898 260.255 29.638 261.291 28.518C262.327 27.398 263.573 26.502 265.029 25.83C266.485 25.158 268.123 24.822 269.943 24.822C271.623 24.822 273.051 25.116 274.227 25.704C275.431 26.264 276.033 27.034 276.033 28.014C276.033 28.266 276.005 28.602 275.949 29.022C275.893 29.414 275.823 29.736 275.739 29.988C275.655 30.212 275.529 30.422 275.361 30.618C275.221 30.786 275.025 30.87 274.773 30.87C274.661 30.87 274.451 30.828 274.143 30.744C274.031 31.332 273.947 31.906 273.891 32.466C273.835 33.026 273.807 33.586 273.807 34.146C273.807 35.21 273.961 36.162 274.269 37.002C274.605 37.814 275.249 38.318 276.201 38.514C276.453 38.57 276.649 38.654 276.789 38.766C276.957 38.878 277.041 39.116 277.041 39.48C277.041 39.788 276.957 40.18 276.789 40.656C276.649 41.132 276.355 41.566 275.907 41.958C275.487 42.322 274.871 42.504 274.059 42.504C272.967 42.504 272.127 42.112 271.539 41.328C270.951 40.516 270.657 39.368 270.657 37.884C269.901 39.256 268.935 40.376 267.759 41.244C266.611 42.112 265.253 42.546 263.685 42.546ZM265.029 38.178C266.149 38.178 267.129 37.828 267.969 37.128C268.837 36.428 269.509 35.546 269.985 34.482C270.293 33.81 270.531 33.082 270.699 32.298C270.867 31.486 270.979 30.688 271.035 29.904C270.559 29.68 270.013 29.498 269.397 29.358C268.781 29.218 268.137 29.148 267.465 29.148C265.757 29.148 264.343 29.652 263.223 30.66C262.131 31.668 261.585 32.928 261.585 34.44C261.585 35.56 261.893 36.47 262.509 37.17C263.125 37.842 263.965 38.178 265.029 38.178Z" fill="#8BACFF"/>
</svg>
