<svg width="281" height="60" viewBox="0 0 281 60" fill="none" xmlns="http://www.w3.org/2000/svg">
<rect y="7" width="53" height="38" rx="10" fill="#4375F5"/>
<rect x="23" y="45" width="6" height="6" fill="#4375F5"/>
<rect x="12" y="51" width="27" height="6" rx="3" fill="#4375F5"/>
<circle cx="44" cy="27" r="24.25" fill="#4375F5" stroke="white" stroke-width="1.5"/>
<circle cx="44" cy="27" r="15" fill="white"/>
<path d="M53 44.8145L59.3891 40L66.6109 49.5836C67.608 50.9068 67.3436 52.7879 66.0204 53.785L64.4231 54.9886C63.0999 55.9857 61.2189 55.7214 60.2218 54.3981L53 44.8145Z" fill="#4375F5"/>
<path d="M50 5H69C69.5523 5 70 5.44772 70 6C70 6.55228 69.5523 7 69 7H50V5Z" fill="#4375F5"/>
<path d="M62 39H70.5C71.3284 39 72 39.6716 72 40.5C72 41.3284 71.3284 42 70.5 42H62V39Z" fill="#4375F5"/>
<path d="M66 31H70C70.5523 31 71 31.4477 71 32C71 32.5523 70.5523 33 70 33H66V31Z" fill="#4375F5"/>
<path d="M66 50H70C70.5523 50 71 50.4477 71 51V52C71 52.5523 70.5523 53 70 53H66V50Z" fill="#4375F5"/>
<path d="M61 12H69.5C70.3284 12 71 12.6716 71 13.5C71 14.3284 70.3284 15 69.5 15H61V12Z" fill="#4375F5"/>
<path d="M96.6 46.5C96.2 46.5 95.7833 46.4333 95.35 46.3C94.95 46.1667 94.6167 45.85 94.35 45.35C94.0833 44.85 93.95 44.0833 93.95 43.05C93.95 42.3833 94 41.5333 94.1 40.5C94.2333 39.4333 94.3667 38.4 94.5 37.4C94.7667 35.7333 95 33.9 95.2 31.9C95.4333 29.9 95.55 27.9167 95.55 25.95C95.55 25.25 95.5333 24.5167 95.5 23.75C95.4667 22.9833 95.4 22.25 95.3 21.55C95.1 21.65 94.8667 21.75 94.6 21.85C94.3667 21.9167 94.1667 21.95 94 21.95C93.6667 21.95 93.4333 21.7833 93.3 21.45C93.2 21.0833 93.15 20.6667 93.15 20.2C93.15 19.1333 93.4 18.2833 93.9 17.65C94.4333 16.9833 95.2167 16.3833 96.25 15.85C97.6167 15.0833 99.0667 14.5333 100.6 14.2C102.167 13.8333 103.65 13.65 105.05 13.65C107.117 13.65 108.95 14.0167 110.55 14.75C112.15 15.4833 113.4 16.5167 114.3 17.85C115.2 19.1833 115.65 20.7833 115.65 22.65C115.65 24.5833 115.183 26.3 114.25 27.8C113.35 29.3 112.183 30.5333 110.75 31.5C109.35 32.4333 107.917 33.05 106.45 33.35C106.983 34.1833 107.55 35.0167 108.15 35.85C108.783 36.6833 109.417 37.4333 110.05 38.1C111.95 40.0667 113.883 41.05 115.85 41.05C116.383 41.05 116.85 41.0167 117.25 40.95C117.45 40.9167 117.617 41 117.75 41.2C117.917 41.3667 118 41.7167 118 42.25C118 42.8833 117.867 43.5333 117.6 44.2C117.333 44.8333 116.883 45.3667 116.25 45.8C115.617 46.2333 114.75 46.45 113.65 46.45C112.35 46.45 111.1 46.0167 109.9 45.15C108.733 44.2833 107.65 43.1833 106.65 41.85C105.65 40.4833 104.75 39.05 103.95 37.55C103.183 36.05 102.533 34.6667 102 33.4C101.867 33.0333 101.75 32.6833 101.65 32.35C101.55 31.9833 101.5 31.6333 101.5 31.3C101.5 30.7333 101.683 30.2667 102.05 29.9C102.317 29.6333 102.683 29.45 103.15 29.35C103.65 29.25 104.367 29.2 105.3 29.2C107.067 29.2 108.5 28.7167 109.6 27.75C110.7 26.7833 111.25 25.5333 111.25 24C111.25 22.3333 110.617 21.1167 109.35 20.35C108.117 19.5833 106.6 19.2 104.8 19.2C103.333 19.2 101.8 19.4333 100.2 19.9C100.1 22.0667 99.8667 24.55 99.5 27.35C99.3 29.0167 99.1167 30.6667 98.95 32.3C98.8167 33.9333 98.75 35.4167 98.75 36.75C98.75 37.9167 98.85 38.95 99.05 39.85C99.2833 40.7167 99.7333 41.4667 100.4 42.1C100.867 42.5667 101.1 43.0667 101.1 43.6C101.1 44.3333 100.683 45 99.85 45.6C99.0167 46.2 97.9333 46.5 96.6 46.5ZM128.143 46.65C125.609 46.65 123.626 45.9333 122.193 44.5C120.793 43.0333 120.093 41 120.093 38.4C120.093 36.0333 120.609 33.8833 121.643 31.95C122.676 30.0167 124.059 28.4833 125.793 27.35C127.559 26.1833 129.493 25.6 131.593 25.6C133.593 25.6 135.193 26.1 136.393 27.1C137.593 28.0667 138.193 29.3667 138.193 31C138.193 32.3 137.793 33.5 136.993 34.6C136.193 35.7 135.126 36.5833 133.793 37.25C132.459 37.8833 130.976 38.2 129.343 38.2C127.343 38.2 125.709 37.75 124.443 36.85C124.476 38.3833 124.993 39.6167 125.993 40.55C127.026 41.4833 128.343 41.95 129.943 41.95C130.909 41.95 131.893 41.7833 132.893 41.45C133.926 41.0833 134.809 40.6 135.543 40C136.009 39.6 136.443 39.4 136.843 39.4C137.176 39.4 137.443 39.5167 137.643 39.75C137.876 39.95 137.993 40.2167 137.993 40.55C137.993 41.2833 137.359 42.25 136.093 43.45C133.859 45.5833 131.209 46.65 128.143 46.65ZM128.893 34.9C130.093 34.9 131.093 34.65 131.893 34.15C132.693 33.65 133.093 33.0167 133.093 32.25C133.093 31.6167 132.826 31.1333 132.293 30.8C131.759 30.4333 131.026 30.25 130.093 30.25C128.859 30.25 127.776 30.5833 126.843 31.25C125.943 31.8833 125.293 32.7833 124.893 33.95C125.359 34.25 125.959 34.4833 126.693 34.65C127.426 34.8167 128.159 34.9 128.893 34.9ZM149.071 46.7C148.171 46.7 147.388 46.4333 146.721 45.9C146.088 45.3333 145.704 44.3 145.571 42.8C145.504 41.6667 145.354 40.4167 145.121 39.05C144.921 37.6833 144.654 36.3833 144.321 35.15C143.988 33.9167 143.604 32.95 143.171 32.25C142.938 31.8833 142.671 31.6167 142.371 31.45C142.104 31.25 141.688 31.1167 141.121 31.05C140.754 31.0167 140.504 30.9 140.371 30.7C140.238 30.5 140.171 30.1833 140.171 29.75C140.171 28.3833 140.538 27.3833 141.271 26.75C142.038 26.0833 142.904 25.75 143.871 25.75C144.871 25.75 145.704 26.0833 146.371 26.75C147.038 27.3833 147.554 28.2333 147.921 29.3C148.288 30.3667 148.538 31.55 148.671 32.85C148.838 34.1167 148.921 35.4 148.921 36.7C148.921 37.2333 148.904 37.8 148.871 38.4C148.871 38.9667 148.871 39.45 148.871 39.85C148.871 40.2167 148.938 40.5 149.071 40.7C149.238 40.9 149.538 41 149.971 41C150.504 41 151.121 40.85 151.821 40.55C152.521 40.2167 153.204 39.75 153.871 39.15C154.571 38.55 155.138 37.85 155.571 37.05C156.038 36.2167 156.271 35.3 156.271 34.3C156.271 33.7333 156.171 33.1333 155.971 32.5C155.804 31.8667 155.521 31.3333 155.121 30.9C154.721 30.4667 154.421 30.1333 154.221 29.9C154.054 29.6333 153.971 29.3333 153.971 29C153.971 28.4 154.238 27.85 154.771 27.35C155.338 26.85 155.988 26.45 156.721 26.15C157.488 25.85 158.154 25.7 158.721 25.7C159.688 25.7 160.304 26.1 160.571 26.9C160.838 27.7 160.971 28.5833 160.971 29.55C160.971 31.3833 160.638 33.3 159.971 35.3C159.304 37.3 158.404 39.1667 157.271 40.9C156.138 42.6333 154.854 44.0333 153.421 45.1C152.021 46.1667 150.571 46.7 149.071 46.7ZM168.584 21.15C167.651 21.1167 166.901 20.8333 166.334 20.3C165.768 19.7667 165.484 19.0167 165.484 18.05C165.518 17.0167 165.868 16.1833 166.534 15.55C167.201 14.8833 168.051 14.5667 169.084 14.6C170.051 14.6333 170.801 14.9167 171.334 15.45C171.901 15.9833 172.168 16.7333 172.134 17.7C172.101 18.7 171.768 19.5333 171.134 20.2C170.501 20.8333 169.651 21.15 168.584 21.15ZM168.634 46.5C167.634 46.5 166.851 46.2333 166.284 45.7C165.718 45.1333 165.434 44.1833 165.434 42.85C165.434 42.0833 165.501 41.3333 165.634 40.6C165.801 39.8667 165.984 39.15 166.184 38.45C166.418 37.7167 166.601 36.9667 166.734 36.2C166.901 35.4333 166.984 34.6167 166.984 33.75C166.984 33.15 166.901 32.5833 166.734 32.05C166.568 31.4833 166.201 31.0667 165.634 30.8C165.201 30.5667 164.818 30.3333 164.484 30.1C164.184 29.8333 164.034 29.5 164.034 29.1C164.034 28.6333 164.251 28.1333 164.684 27.6C165.118 27.0667 165.684 26.6167 166.384 26.25C167.118 25.85 167.868 25.65 168.634 25.65C169.468 25.65 170.068 25.8667 170.434 26.3C170.834 26.7333 171.101 27.2833 171.234 27.95C171.368 28.6167 171.434 29.3 171.434 30C171.434 31.0667 171.351 32.1167 171.184 33.15C171.018 34.15 170.851 35.0833 170.684 35.95C170.551 36.5833 170.451 37.1667 170.384 37.7C170.318 38.2333 170.284 38.7333 170.284 39.2C170.284 40.0333 170.484 40.6667 170.884 41.1C171.284 41.5 171.851 41.8833 172.584 42.25C172.884 42.4167 173.034 42.6667 173.034 43C173.034 43.2667 172.901 43.6833 172.634 44.25C172.368 44.8167 171.901 45.3333 171.234 45.8C170.601 46.2667 169.734 46.5 168.634 46.5ZM184.637 46.65C182.103 46.65 180.12 45.9333 178.687 44.5C177.287 43.0333 176.587 41 176.587 38.4C176.587 36.0333 177.103 33.8833 178.137 31.95C179.17 30.0167 180.553 28.4833 182.287 27.35C184.053 26.1833 185.987 25.6 188.087 25.6C190.087 25.6 191.687 26.1 192.887 27.1C194.087 28.0667 194.687 29.3667 194.687 31C194.687 32.3 194.287 33.5 193.487 34.6C192.687 35.7 191.62 36.5833 190.287 37.25C188.953 37.8833 187.47 38.2 185.837 38.2C183.837 38.2 182.203 37.75 180.937 36.85C180.97 38.3833 181.487 39.6167 182.487 40.55C183.52 41.4833 184.837 41.95 186.437 41.95C187.403 41.95 188.387 41.7833 189.387 41.45C190.42 41.0833 191.303 40.6 192.037 40C192.503 39.6 192.937 39.4 193.337 39.4C193.67 39.4 193.937 39.5167 194.137 39.75C194.37 39.95 194.487 40.2167 194.487 40.55C194.487 41.2833 193.853 42.25 192.587 43.45C190.353 45.5833 187.703 46.65 184.637 46.65ZM185.387 34.9C186.587 34.9 187.587 34.65 188.387 34.15C189.187 33.65 189.587 33.0167 189.587 32.25C189.587 31.6167 189.32 31.1333 188.787 30.8C188.253 30.4333 187.52 30.25 186.587 30.25C185.353 30.25 184.27 30.5833 183.337 31.25C182.437 31.8833 181.787 32.7833 181.387 33.95C181.853 34.25 182.453 34.4833 183.187 34.65C183.92 34.8167 184.653 34.9 185.387 34.9ZM205.365 46.7C204.432 46.7 203.632 46.4333 202.965 45.9C202.332 45.3333 201.965 44.3 201.865 42.8C201.799 41.6667 201.649 40.4 201.415 39C201.215 37.6 200.965 36.2833 200.665 35.05C200.365 33.8167 200.015 32.8833 199.615 32.25C199.382 31.8833 199.115 31.6167 198.815 31.45C198.549 31.25 198.132 31.1167 197.565 31.05C196.965 31.0167 196.665 30.5833 196.665 29.75C196.665 28.3833 197.032 27.3833 197.765 26.75C198.499 26.0833 199.332 25.75 200.265 25.75C201.265 25.75 202.082 26.0833 202.715 26.75C203.349 27.3833 203.832 28.25 204.165 29.35C204.532 30.4167 204.782 31.6167 204.915 32.95C205.082 34.2833 205.165 35.6333 205.165 37C205.165 37.5 205.149 38 205.115 38.5C205.115 38.9667 205.115 39.4333 205.115 39.9C205.115 40.2333 205.182 40.5167 205.315 40.75C205.449 40.95 205.782 41.05 206.315 41.05C207.049 41.05 207.915 40.8667 208.915 40.5C209.915 40.1 210.782 39.45 211.515 38.55C212.282 37.65 212.665 36.45 212.665 34.95C212.665 34.1833 212.549 33.55 212.315 33.05C212.082 32.5167 211.765 32.0167 211.365 31.55C211.232 31.3833 211.115 31.2167 211.015 31.05C210.915 30.8833 210.865 30.6833 210.865 30.45C210.865 29.8167 211.115 29.3167 211.615 28.95C212.149 28.55 212.732 28.2667 213.365 28.1C214.032 27.9 214.582 27.8 215.015 27.8C215.449 27.8 215.782 27.9167 216.015 28.15C216.282 28.35 216.482 28.7667 216.615 29.4C216.749 29.8333 216.849 30.3167 216.915 30.85C216.982 31.35 217.015 31.9333 217.015 32.6C217.015 33.6333 216.965 34.4667 216.865 35.1C216.799 35.7333 216.715 36.3 216.615 36.8C216.515 37.2333 216.432 37.6667 216.365 38.1C216.332 38.5 216.315 38.9833 216.315 39.55C216.315 40.15 216.432 40.55 216.665 40.75C216.899 40.95 217.265 41.05 217.765 41.05C219.665 41.05 221.215 40.4 222.415 39.1C223.615 37.7667 224.215 36.15 224.215 34.25C224.215 33.5833 224.115 32.9667 223.915 32.4C223.715 31.8 223.365 31.2333 222.865 30.7C222.599 30.3667 222.382 30.1 222.215 29.9C222.049 29.6667 221.965 29.3833 221.965 29.05C221.965 28.45 222.232 27.9 222.765 27.4C223.332 26.9 223.982 26.5 224.715 26.2C225.482 25.8667 226.165 25.7 226.765 25.7C227.665 25.7 228.249 26.1167 228.515 26.95C228.782 27.7833 228.915 28.7333 228.915 29.8C228.915 31.6 228.649 33.4833 228.115 35.45C227.615 37.3833 226.882 39.2167 225.915 40.95C224.949 42.65 223.765 44.0333 222.365 45.1C220.965 46.1667 219.382 46.7 217.615 46.7C215.815 46.7 214.582 46.1833 213.915 45.15C213.249 44.1167 212.965 42.8667 213.065 41.4C212.065 42.9333 210.882 44.2 209.515 45.2C208.182 46.2 206.799 46.7 205.365 46.7Z" fill="#8BACFF"/>
<path d="M248.56 46.5C247.76 46.5 247.11 46.2833 246.61 45.85C246.11 45.4167 245.86 44.5333 245.86 43.2C245.86 42.5333 245.927 41.6667 246.06 40.6C246.193 39.5333 246.327 38.4667 246.46 37.4C246.827 35.0333 247.093 32.9833 247.26 31.25C247.427 29.5167 247.51 27.75 247.51 25.95C247.51 24.2833 247.41 22.7333 247.21 21.3C247.043 19.8667 246.593 18.6333 245.86 17.6C245.593 17.1667 245.46 16.8333 245.46 16.6C245.46 16.2 245.677 15.7833 246.11 15.35C246.577 14.8833 247.127 14.5 247.76 14.2C248.427 13.9 249.043 13.75 249.61 13.75C250.643 13.75 251.327 14.2167 251.66 15.15C252.027 16.05 252.21 17.1833 252.21 18.55C252.21 19.3833 252.16 20.4167 252.06 21.65C251.96 22.8833 251.843 24.0833 251.71 25.25C251.61 26.3833 251.51 27.2667 251.41 27.9C251.177 29.6667 250.993 31.3167 250.86 32.85C250.727 34.3833 250.66 35.6833 250.66 36.75C250.66 38.0167 250.777 39.0833 251.01 39.95C251.277 40.8167 251.727 41.5333 252.36 42.1C252.793 42.5 253.01 42.95 253.01 43.45C253.01 44.25 252.593 44.9667 251.76 45.6C250.96 46.2 249.893 46.5 248.56 46.5ZM267.052 46.5C266.652 46.5 266.235 46.4333 265.802 46.3C265.402 46.1667 265.069 45.85 264.802 45.35C264.535 44.85 264.402 44.0833 264.402 43.05C264.402 42.3167 264.452 41.4167 264.552 40.35C264.685 39.2833 264.852 38.1333 265.052 36.9C265.319 35.2333 265.535 33.4833 265.702 31.65C265.902 29.7833 266.002 27.8833 266.002 25.95C266.002 24.3833 265.919 23.0333 265.752 21.9C265.619 20.7333 265.435 19.8333 265.202 19.2C263.935 19.2333 262.735 19.3167 261.602 19.45C260.469 19.5833 259.319 19.8 258.152 20.1C257.852 20.1333 257.585 20.1833 257.352 20.25C257.152 20.2833 256.952 20.3 256.752 20.3C256.452 20.3 256.235 20.25 256.102 20.15C255.969 20.0167 255.902 19.7167 255.902 19.25C255.902 18.6833 255.985 18.1 256.152 17.5C256.319 16.8667 256.569 16.3333 256.902 15.9C257.235 15.4333 257.619 15.1 258.052 14.9C258.519 14.6667 259.019 14.5167 259.552 14.45C260.385 14.35 261.452 14.2667 262.752 14.2C264.052 14.1 265.469 14.0167 267.002 13.95C268.569 13.8833 270.102 13.85 271.602 13.85C274.035 13.85 275.769 13.8667 276.802 13.9C277.869 13.9333 278.585 13.9833 278.952 14.05C279.419 14.1167 279.735 14.2667 279.902 14.5C280.102 14.7 280.202 15.0333 280.202 15.5C280.202 16.4 279.802 17.3 279.002 18.2C278.669 18.6 278.319 18.9167 277.952 19.15C277.585 19.35 277.102 19.4333 276.502 19.4C275.969 19.3333 275.185 19.2833 274.152 19.25C273.119 19.2167 271.969 19.2 270.702 19.2C270.669 20.3667 270.569 21.7333 270.402 23.3C270.269 24.8333 270.102 26.3833 269.902 27.95C269.702 29.4833 269.535 31.0167 269.402 32.55C269.269 34.0833 269.202 35.4833 269.202 36.75C269.202 37.9167 269.302 38.95 269.502 39.85C269.735 40.7167 270.185 41.4667 270.852 42.1C271.319 42.5667 271.552 43.0667 271.552 43.6C271.552 44.3333 271.135 45 270.302 45.6C269.469 46.2 268.385 46.5 267.052 46.5Z" fill="#4375F5"/>
</svg>
