<svg width="38" height="38" viewBox="0 0 38 38" fill="none" xmlns="http://www.w3.org/2000/svg">
<path d="M1.2048e-08 10.8173L18.4024 22.515C18.587 22.6323 18.7919 22.6936 19 22.6936C19.2081 22.6936 19.413 22.6323 19.5976 22.515L38 10.8194V31.1389C38.0001 32.8914 37.4515 34.5775 36.4667 35.8514C35.482 37.1252 34.1358 37.8902 32.7042 37.9894L32.3864 38H5.61364C4.17976 38.0001 2.80021 37.3296 1.75797 36.126C0.715725 34.9224 0.0898159 33.277 0.00863657 31.5273L1.2048e-08 31.1389V10.8173ZM5.61364 1.47254e-08H32.3864C33.8202 -0.000114732 35.1998 0.670392 36.242 1.87397C37.2843 3.07755 37.9102 4.72296 37.9914 6.47267L38 6.86111V7.24956L19 19.3251L1.2048e-08 7.24956V6.86111C-9.38716e-05 5.1086 0.548503 3.42247 1.53325 2.14862C2.518 0.874775 3.86424 0.109775 5.29582 0.0105558L5.61364 1.47254e-08Z" fill="#666666"/>
</svg>
