<svg width="25" height="26" viewBox="0 0 26 26" fill="none" xmlns="http://www.w3.org/2000/svg">
<path d="M26 1.73333C26 0.866667 25.1333 0 24.2667 0H1.73333C0.866667 0 0 0.866667 0 1.73333V18.2H26V1.73333Z" fill="#212528"/>
<path d="M0 18.2V19.9333C0 20.8 0.866667 21.6667 1.73333 21.6667H24.2667C25.1333 21.6667 26 20.8 26 19.9333V18.2H0Z" fill="#DDDDDD"/>
<path d="M9.53338 22.5333C9.53338 24.2667 7.80004 24.2667 6.06671 24.2667H19.9334C18.2 24.2667 16.4667 24.2667 16.4667 22.5333V21.6667H9.53338V22.5333Z" fill="#BFBEBE"/>
<path d="M1.73328 1.73334H24.2666V16.4667H1.73328V1.73334Z" fill="#3E4347"/>
<path d="M13 20.3233C13.2393 20.3233 13.4333 20.1293 13.4333 19.89C13.4333 19.6507 13.2393 19.4567 13 19.4567C12.7607 19.4567 12.5667 19.6507 12.5667 19.89C12.5667 20.1293 12.7607 20.3233 13 20.3233Z" fill="#94989B"/>
<path d="M6.06671 24.2667H19.9334V26H6.06671V24.2667Z" fill="#94989B"/>
</svg>
