<svg width="12" height="25" viewBox="0 0 12 25" fill="none" xmlns="http://www.w3.org/2000/svg">
<path d="M8.87081 12.4912L0.430623 2.80145C0.143541 2.47187 0.0045929 2.08736 0.0137796 1.64791C0.0229664 1.20847 0.171483 0.823956 0.459331 0.494373C0.746411 0.164791 1.08134 0 1.46412 0C1.84689 0 2.18182 0.164791 2.4689 0.494373L11.311 10.6126C11.5407 10.8762 11.7129 11.1729 11.8278 11.5024C11.9426 11.832 12 12.1616 12 12.4912C12 12.8208 11.9426 13.1504 11.8278 13.4799C11.7129 13.8095 11.5407 14.1061 11.311 14.3698L2.4689 24.521C2.18182 24.8505 1.84191 25.0101 1.44919 24.9995C1.05646 24.989 0.716938 24.8185 0.430623 24.488C0.143541 24.1584 9.53674e-07 23.7739 9.53674e-07 23.3345C9.53674e-07 22.895 0.143541 22.5105 0.430623 22.1809L8.87081 12.4912Z" fill=""/>
</svg>
