<svg width="35" height="10" viewBox="0 0 35 10" fill="none" xmlns="http://www.w3.org/2000/svg">
<path opacity="0.6" d="M31.029 9.99996H30.0715C29.994 9.97619 29.9236 9.93657 29.8462 9.92072C27.8325 9.57207 26.2412 7.68618 26.1075 5.47545C25.9525 3.0032 27.2058 0.911289 29.2476 0.229834C29.5152 0.142671 29.7968 0.0792789 30.0714 3.99e-05H31.029C31.0923 0.0238116 31.1486 0.0634318 31.2191 0.0713557C33.0778 0.412083 34.4931 1.91762 34.8944 3.97784C34.9225 4.13631 34.9648 4.29479 35 4.45327V5.53092C34.9789 5.60224 34.9437 5.67355 34.9366 5.74487C34.6409 7.80508 33.3384 9.37397 31.5288 9.84945C31.3528 9.89699 31.1909 9.95246 31.0289 10L31.029 9.99996ZM3.96397 0L4.9216 3.99e-05C4.99905 0.0238116 5.06946 0.0634318 5.14691 0.0713557C7.17468 0.427931 8.75887 2.32174 8.88561 4.55628C9.02642 7.02061 7.75907 9.1046 5.71018 9.77813C5.44963 9.86529 5.18211 9.92868 4.92156 10H3.96401C3.90064 9.97623 3.84431 9.93661 3.78094 9.92076C1.95032 9.54041 0.753373 8.3439 0.183063 6.34708C0.105613 6.08559 0.0633678 5.80826 0 5.53885V4.4612C0.0211226 4.38988 0.056327 4.31857 0.0633678 4.24725C0.366125 2.17911 1.66164 0.618104 3.47115 0.14267C3.64013 0.0950873 3.80207 0.0475434 3.96397 0ZM17.0178 3.99e-05H17.9753C18.0528 0.0238116 18.1232 0.0634311 18.2006 0.0792789C20.2214 0.435854 21.8478 2.40098 21.9323 4.61967C22.0309 7.1157 20.6931 9.23138 18.6301 9.82568C18.4119 9.88907 18.1936 9.94453 17.9753 10H17.0178C16.9403 9.97623 16.8699 9.93661 16.7925 9.92076C14.7717 9.57211 13.1453 7.59906 13.0538 5.38037C12.9482 2.88434 14.293 0.768658 16.3559 0.174365C16.5812 0.110974 16.7995 0.0555072 17.0178 3.99e-05Z" fill=""/>
</svg>
