<svg width="12" height="25" viewBox="0 0 12 25" fill="none" xmlns="http://www.w3.org/2000/svg">
<path d="M3.12919 12.5088L11.5694 22.1985C11.8565 22.5281 11.9954 22.9126 11.9862 23.3521C11.977 23.7915 11.8285 24.176 11.5407 24.5056C11.2536 24.8352 10.9187 25 10.5359 25C10.1531 25 9.81818 24.8352 9.5311 24.5056L0.688996 14.3874C0.459331 14.1238 0.287081 13.8271 0.172249 13.4976C0.0574164 13.168 0 12.8384 0 12.5088C0 12.1792 0.0574164 11.8496 0.172249 11.5201C0.287081 11.1905 0.459331 10.8939 0.688996 10.6302L9.5311 0.479045C9.81818 0.149462 10.1581 -0.0100561 10.5508 0.000490542C10.9435 0.0110372 11.2831 0.181541 11.5694 0.512003C11.8565 0.841586 12 1.2261 12 1.66554C12 2.10499 11.8565 2.4895 11.5694 2.81908L3.12919 12.5088Z" fill="#256FFF"/>
</svg>
