<svg width="15" height="30" viewBox="0 0 15 30" fill="none" xmlns="http://www.w3.org/2000/svg">
<path d="M11.0885 14.9894L0.538278 3.36174C0.179426 2.96624 0.00574112 2.50483 0.0172243 1.9775C0.0287075 1.45016 0.214354 0.988749 0.574162 0.593248C0.933014 0.19775 1.35167 0 1.83014 0C2.30861 0 2.72727 0.19775 3.08612 0.593248L14.1388 12.7351C14.4258 13.0515 14.6411 13.4074 14.7847 13.8029C14.9282 14.1984 15 14.5939 15 14.9894C15 15.3849 14.9282 15.7804 14.7847 16.1759C14.6411 16.5714 14.4258 16.9274 14.1388 17.2438L3.08612 29.4251C2.72727 29.8206 2.30239 30.0121 1.81148 29.9994C1.32057 29.9868 0.896173 29.7822 0.538278 29.3856C0.179426 28.9901 0 28.5287 0 28.0013C0 27.474 0.179426 27.0126 0.538278 26.6171L11.0885 14.9894Z" fill="#696969"/>
</svg>
