<svg width="30" height="30" viewBox="0 0 30 30" fill="none" xmlns="http://www.w3.org/2000/svg">
<path d="M21.4874 18.8477C21.6031 18.8477 21.7044 18.8845 21.785 18.9446C21.7849 18.9449 21.7847 18.9451 21.7845 18.9454C21.6989 18.8823 21.5949 18.8477 21.4874 18.8477ZM27.7705 29.2031L27.7704 29.2029L26.0965 27.529C24.1643 25.5967 21.614 24.7084 18.9501 24.2344C17.1384 23.912 15.2195 23.7748 13.3794 23.6431C12.534 23.5827 11.7053 23.5234 10.9111 23.4479C8.00011 23.1711 5.30386 21.7958 3.37088 19.6016C1.43789 17.4074 0.413373 14.5592 0.505745 11.6365C0.598116 8.71372 1.80044 5.93593 3.86812 3.8682C5.9358 1.80047 8.71351 0.598118 11.6362 0.505745C14.5589 0.413371 17.407 1.43791 19.6011 3.37094C21.7952 5.30398 23.1705 8.0003 23.4473 10.9114C23.724 13.8221 22.8816 16.7289 21.0915 19.0406C20.9172 19.2657 20.9721 19.5635 21.1599 19.7271L29.2036 27.7709C29.2036 27.771 29.2036 27.771 29.2037 27.7711C29.3935 27.9611 29.5001 28.2187 29.5 28.4874C29.4999 28.756 29.3931 29.0136 29.2031 29.2036C29.013 29.3935 28.7553 29.5001 28.4867 29.5C28.218 29.4999 27.9604 29.3931 27.7705 29.2031ZM12.0006 21.4992C14.52 21.4992 16.9363 20.4983 18.7178 18.7167C20.4993 16.9352 21.5001 14.5189 21.5001 11.9994C21.5001 9.47986 20.4993 7.06355 18.7178 5.28199C16.9363 3.50042 14.52 2.49955 12.0006 2.49955C9.48111 2.49955 7.06485 3.50042 5.28334 5.28199C3.50182 7.06355 2.50098 9.47986 2.50098 11.9994C2.50098 14.5189 3.50182 16.9352 5.28334 18.7167C7.06485 20.4983 9.48111 21.4992 12.0006 21.4992Z" fill="white" stroke="white"/>
</svg>
