<svg width="25" height="25" viewBox="0 0 25 25" fill="none" xmlns="http://www.w3.org/2000/svg">
<path d="M8.94133 4.26001C10.525 1.42 11.3163 0 12.5 0C13.6837 0 14.475 1.42 16.0587 4.26001L16.4687 4.99502C16.9186 5.80252 17.1436 6.20627 17.4936 6.47252C17.8436 6.73877 18.2811 6.83752 19.1561 7.03502L19.9511 7.21502C23.026 7.91127 24.5622 8.25878 24.9285 9.43503C25.2934 10.61 24.246 11.8363 22.1498 14.2875L21.6073 14.9213C21.0123 15.6175 20.7136 15.9663 20.5798 16.3963C20.4461 16.8276 20.4911 17.2926 20.5811 18.2213L20.6636 19.0676C20.9798 22.3388 21.1385 23.9738 20.1811 24.7001C19.2236 25.4276 17.7836 24.7638 14.9062 23.4388L14.16 23.0963C13.3425 22.7188 12.9337 22.5313 12.5 22.5313C12.0663 22.5313 11.6575 22.7188 10.8388 23.0963L10.0951 23.4388C7.21637 24.7638 5.77641 25.4263 4.82018 24.7013C3.86145 23.9738 4.0202 22.3388 4.33644 19.0676L4.41894 18.2226C4.50894 17.2926 4.55394 16.8276 4.41894 16.3976C4.28644 15.9663 3.9877 15.6175 3.39271 14.9225L2.85023 14.2875C0.754026 11.8375 -0.293449 10.6113 0.0715421 9.43503C0.437783 8.25878 1.97525 7.91002 5.05017 7.21502L5.84516 7.03502C6.71889 6.83752 7.15513 6.73877 7.50637 6.47252C7.85636 6.20627 8.08135 5.80252 8.53134 4.99502L8.94133 4.26001Z" fill=""/>
</svg>
