<svg width="38" height="38" viewBox="0 0 38 38" fill="none" xmlns="http://www.w3.org/2000/svg">
<path d="M19 0C24.0391 0 28.8718 2.00178 32.435 5.56497C35.9982 9.12816 38 13.9609 38 19C38 24.0391 35.9982 28.8718 32.435 32.435C28.8718 35.9982 24.0391 38 19 38C13.9609 38 9.12816 35.9982 5.56497 32.435C2.00178 28.8718 0 24.0391 0 19C0 13.9609 2.00178 9.12816 5.56497 5.56497C9.12816 2.00178 13.9609 0 19 0ZM16.6331 22.7484L12.4124 18.525C12.2611 18.3737 12.0815 18.2537 11.8838 18.1718C11.6861 18.0899 11.4742 18.0477 11.2602 18.0477C11.0462 18.0477 10.8343 18.0899 10.6366 18.1718C10.4389 18.2537 10.2593 18.3737 10.108 18.525C9.80241 18.8306 9.63074 19.2451 9.63074 19.6772C9.63074 20.1094 9.80241 20.5238 10.108 20.8294L15.4823 26.2037C15.6332 26.3558 15.8127 26.4765 16.0104 26.5588C16.2082 26.6412 16.4203 26.6836 16.6345 26.6836C16.8487 26.6836 17.0608 26.6412 17.2586 26.5588C17.4563 26.4765 17.6358 26.3558 17.7867 26.2037L28.9153 15.0724C29.0686 14.9217 29.1906 14.7422 29.2742 14.5441C29.3578 14.3461 29.4013 14.1334 29.4023 13.9184C29.4033 13.7035 29.3618 13.4904 29.28 13.2916C29.1983 13.0928 29.078 12.9121 28.926 12.76C28.7741 12.6079 28.5936 12.4873 28.3948 12.4054C28.1961 12.3234 27.9831 12.2816 27.7681 12.2823C27.5532 12.2831 27.3404 12.3264 27.1423 12.4097C26.9441 12.4931 26.7644 12.6148 26.6136 12.768L16.6331 22.7484Z" fill="#4ECB71"/>
</svg>
