<svg width="23" height="29" viewBox="0 0 23 29" fill="none" xmlns="http://www.w3.org/2000/svg">
<g filter="url(#filter0_i_19_9)">
<path d="M7.351 3.34635C7.34338 2.90967 7.42282 2.47585 7.58466 2.0702C7.7465 1.66455 7.98752 1.2952 8.29364 0.98369C8.59976 0.672185 8.96485 0.424768 9.36762 0.255876C9.77039 0.0869839 10.2028 0 10.6395 0C11.0762 0 11.5086 0.0869839 11.9114 0.255876C12.3141 0.424768 12.6792 0.672185 12.9854 0.98369C13.2915 1.2952 13.5325 1.66455 13.6943 2.0702C13.8562 2.47585 13.9356 2.90967 13.928 3.34635V7.13035C13.928 7.45335 13.906 7.77535 13.856 8.09735C13.838 8.21435 13.819 8.33235 13.808 8.44935C13.772 8.81935 13.816 9.30335 14.068 9.62835L13.466 10.2083C14.9982 10.9929 16.2837 12.1857 17.1806 13.655C18.0774 15.1243 18.5506 16.813 18.548 18.5343C18.548 19.5193 18.396 20.4693 18.115 21.3603L17.119 27.8673H9.017V27.8643C4.014 27.7563 0 24.4943 0 18.5343C0 15.0313 1.677 12.2113 4.215 10.6213L4.208 10.6163C4.381 10.4963 4.585 10.3743 4.804 10.2433L4.805 10.2423C5.525 9.81135 6.405 9.28335 6.868 8.42135C7.271 7.67335 7.349 6.46035 7.349 5.89835H7.351V3.34635Z" fill="url(#paint0_linear_19_9)"/>
</g>
<path d="M7.351 3.34635C7.34338 2.90967 7.42282 2.47585 7.58466 2.0702C7.7465 1.66455 7.98752 1.2952 8.29364 0.98369C8.59976 0.672185 8.96485 0.424768 9.36762 0.255876C9.77039 0.0869839 10.2028 0 10.6395 0C11.0762 0 11.5086 0.0869839 11.9114 0.255876C12.3141 0.424768 12.6792 0.672185 12.9854 0.98369C13.2915 1.2952 13.5325 1.66455 13.6943 2.0702C13.8562 2.47585 13.9356 2.90967 13.928 3.34635V7.13035C13.928 7.45335 13.906 7.77535 13.856 8.09735C13.838 8.21435 13.819 8.33235 13.808 8.44935C13.772 8.81935 13.816 9.30335 14.068 9.62835L13.466 10.2083C14.9982 10.9929 16.2837 12.1857 17.1806 13.655C18.0774 15.1243 18.5506 16.813 18.548 18.5343C18.548 19.5193 18.396 20.4693 18.115 21.3603L17.119 27.8673H9.017V27.8643C4.014 27.7563 0 24.4943 0 18.5343C0 15.0313 1.677 12.2113 4.215 10.6213L4.208 10.6163C4.381 10.4963 4.585 10.3743 4.804 10.2433L4.805 10.2423C5.525 9.81135 6.405 9.28335 6.868 8.42135C7.271 7.67335 7.349 6.46035 7.349 5.89835H7.351V3.34635Z" fill="url(#paint1_radial_19_9)"/>
<path d="M7.351 3.34635C7.34338 2.90967 7.42282 2.47585 7.58466 2.0702C7.7465 1.66455 7.98752 1.2952 8.29364 0.98369C8.59976 0.672185 8.96485 0.424768 9.36762 0.255876C9.77039 0.0869839 10.2028 0 10.6395 0C11.0762 0 11.5086 0.0869839 11.9114 0.255876C12.3141 0.424768 12.6792 0.672185 12.9854 0.98369C13.2915 1.2952 13.5325 1.66455 13.6943 2.0702C13.8562 2.47585 13.9356 2.90967 13.928 3.34635V7.13035C13.928 7.45335 13.906 7.77535 13.856 8.09735C13.838 8.21435 13.819 8.33235 13.808 8.44935C13.772 8.81935 13.816 9.30335 14.068 9.62835L13.466 10.2083C14.9982 10.9929 16.2837 12.1857 17.1806 13.655C18.0774 15.1243 18.5506 16.813 18.548 18.5343C18.548 19.5193 18.396 20.4693 18.115 21.3603L17.119 27.8673H9.017V27.8643C4.014 27.7563 0 24.4943 0 18.5343C0 15.0313 1.677 12.2113 4.215 10.6213L4.208 10.6163C4.381 10.4963 4.585 10.3743 4.804 10.2433L4.805 10.2423C5.525 9.81135 6.405 9.28335 6.868 8.42135C7.271 7.67335 7.349 6.46035 7.349 5.89835H7.351V3.34635Z" fill="url(#paint2_radial_19_9)"/>
<path d="M7.351 3.34635C7.34338 2.90967 7.42282 2.47585 7.58466 2.0702C7.7465 1.66455 7.98752 1.2952 8.29364 0.98369C8.59976 0.672185 8.96485 0.424768 9.36762 0.255876C9.77039 0.0869839 10.2028 0 10.6395 0C11.0762 0 11.5086 0.0869839 11.9114 0.255876C12.3141 0.424768 12.6792 0.672185 12.9854 0.98369C13.2915 1.2952 13.5325 1.66455 13.6943 2.0702C13.8562 2.47585 13.9356 2.90967 13.928 3.34635V7.13035C13.928 7.45335 13.906 7.77535 13.856 8.09735C13.838 8.21435 13.819 8.33235 13.808 8.44935C13.772 8.81935 13.816 9.30335 14.068 9.62835L13.466 10.2083C14.9982 10.9929 16.2837 12.1857 17.1806 13.655C18.0774 15.1243 18.5506 16.813 18.548 18.5343C18.548 19.5193 18.396 20.4693 18.115 21.3603L17.119 27.8673H9.017V27.8643C4.014 27.7563 0 24.4943 0 18.5343C0 15.0313 1.677 12.2113 4.215 10.6213L4.208 10.6163C4.381 10.4963 4.585 10.3743 4.804 10.2433L4.805 10.2423C5.525 9.81135 6.405 9.28335 6.868 8.42135C7.271 7.67335 7.349 6.46035 7.349 5.89835H7.351V3.34635Z" fill="url(#paint3_radial_19_9)"/>
<path d="M7.351 3.34635C7.34338 2.90967 7.42282 2.47585 7.58466 2.0702C7.7465 1.66455 7.98752 1.2952 8.29364 0.98369C8.59976 0.672185 8.96485 0.424768 9.36762 0.255876C9.77039 0.0869839 10.2028 0 10.6395 0C11.0762 0 11.5086 0.0869839 11.9114 0.255876C12.3141 0.424768 12.6792 0.672185 12.9854 0.98369C13.2915 1.2952 13.5325 1.66455 13.6943 2.0702C13.8562 2.47585 13.9356 2.90967 13.928 3.34635V7.13035C13.928 7.45335 13.906 7.77535 13.856 8.09735C13.838 8.21435 13.819 8.33235 13.808 8.44935C13.772 8.81935 13.816 9.30335 14.068 9.62835L13.466 10.2083C14.9982 10.9929 16.2837 12.1857 17.1806 13.655C18.0774 15.1243 18.5506 16.813 18.548 18.5343C18.548 19.5193 18.396 20.4693 18.115 21.3603L17.119 27.8673H9.017V27.8643C4.014 27.7563 0 24.4943 0 18.5343C0 15.0313 1.677 12.2113 4.215 10.6213L4.208 10.6163C4.381 10.4963 4.585 10.3743 4.804 10.2433L4.805 10.2423C5.525 9.81135 6.405 9.28335 6.868 8.42135C7.271 7.67335 7.349 6.46035 7.349 5.89835H7.351V3.34635Z" fill="url(#paint4_radial_19_9)"/>
<path d="M7.351 3.34635C7.34338 2.90967 7.42282 2.47585 7.58466 2.0702C7.7465 1.66455 7.98752 1.2952 8.29364 0.98369C8.59976 0.672185 8.96485 0.424768 9.36762 0.255876C9.77039 0.0869839 10.2028 0 10.6395 0C11.0762 0 11.5086 0.0869839 11.9114 0.255876C12.3141 0.424768 12.6792 0.672185 12.9854 0.98369C13.2915 1.2952 13.5325 1.66455 13.6943 2.0702C13.8562 2.47585 13.9356 2.90967 13.928 3.34635V7.13035C13.928 7.45335 13.906 7.77535 13.856 8.09735C13.838 8.21435 13.819 8.33235 13.808 8.44935C13.772 8.81935 13.816 9.30335 14.068 9.62835L13.466 10.2083C14.9982 10.9929 16.2837 12.1857 17.1806 13.655C18.0774 15.1243 18.5506 16.813 18.548 18.5343C18.548 19.5193 18.396 20.4693 18.115 21.3603L17.119 27.8673H9.017V27.8643C4.014 27.7563 0 24.4943 0 18.5343C0 15.0313 1.677 12.2113 4.215 10.6213L4.208 10.6163C4.381 10.4963 4.585 10.3743 4.804 10.2433L4.805 10.2423C5.525 9.81135 6.405 9.28335 6.868 8.42135C7.271 7.67335 7.349 6.46035 7.349 5.89835H7.351V3.34635Z" fill="url(#paint5_radial_19_9)"/>
<path d="M7.351 3.34635C7.34338 2.90967 7.42282 2.47585 7.58466 2.0702C7.7465 1.66455 7.98752 1.2952 8.29364 0.98369C8.59976 0.672185 8.96485 0.424768 9.36762 0.255876C9.77039 0.0869839 10.2028 0 10.6395 0C11.0762 0 11.5086 0.0869839 11.9114 0.255876C12.3141 0.424768 12.6792 0.672185 12.9854 0.98369C13.2915 1.2952 13.5325 1.66455 13.6943 2.0702C13.8562 2.47585 13.9356 2.90967 13.928 3.34635V7.13035C13.928 7.45335 13.906 7.77535 13.856 8.09735C13.838 8.21435 13.819 8.33235 13.808 8.44935C13.772 8.81935 13.816 9.30335 14.068 9.62835L13.466 10.2083C14.9982 10.9929 16.2837 12.1857 17.1806 13.655C18.0774 15.1243 18.5506 16.813 18.548 18.5343C18.548 19.5193 18.396 20.4693 18.115 21.3603L17.119 27.8673H9.017V27.8643C4.014 27.7563 0 24.4943 0 18.5343C0 15.0313 1.677 12.2113 4.215 10.6213L4.208 10.6163C4.381 10.4963 4.585 10.3743 4.804 10.2433L4.805 10.2423C5.525 9.81135 6.405 9.28335 6.868 8.42135C7.271 7.67335 7.349 6.46035 7.349 5.89835H7.351V3.34635Z" fill="url(#paint6_radial_19_9)"/>
<path d="M7.351 3.34635C7.34338 2.90967 7.42282 2.47585 7.58466 2.0702C7.7465 1.66455 7.98752 1.2952 8.29364 0.98369C8.59976 0.672185 8.96485 0.424768 9.36762 0.255876C9.77039 0.0869839 10.2028 0 10.6395 0C11.0762 0 11.5086 0.0869839 11.9114 0.255876C12.3141 0.424768 12.6792 0.672185 12.9854 0.98369C13.2915 1.2952 13.5325 1.66455 13.6943 2.0702C13.8562 2.47585 13.9356 2.90967 13.928 3.34635V7.13035C13.928 7.45335 13.906 7.77535 13.856 8.09735C13.838 8.21435 13.819 8.33235 13.808 8.44935C13.772 8.81935 13.816 9.30335 14.068 9.62835L13.466 10.2083C14.9982 10.9929 16.2837 12.1857 17.1806 13.655C18.0774 15.1243 18.5506 16.813 18.548 18.5343C18.548 19.5193 18.396 20.4693 18.115 21.3603L17.119 27.8673H9.017V27.8643C4.014 27.7563 0 24.4943 0 18.5343C0 15.0313 1.677 12.2113 4.215 10.6213L4.208 10.6163C4.381 10.4963 4.585 10.3743 4.804 10.2433L4.805 10.2423C5.525 9.81135 6.405 9.28335 6.868 8.42135C7.271 7.67335 7.349 6.46035 7.349 5.89835H7.351V3.34635Z" fill="url(#paint7_linear_19_9)"/>
<g filter="url(#filter1_f_19_9)">
<path d="M18.762 12.8963C18.7617 12.2197 18.4927 11.5708 18.0142 11.0924C17.5356 10.6141 16.8866 10.3453 16.21 10.3453H13.384C12.8602 10.3456 12.3492 10.507 11.9203 10.8076C11.4914 11.1082 11.1654 11.5335 10.9865 12.0258C10.8077 12.5181 10.7846 13.0535 10.9205 13.5593C11.0563 14.0651 11.3445 14.5169 11.746 14.8533C11.4395 15.0842 11.189 15.381 11.0128 15.7218C10.8367 16.0626 10.7395 16.4387 10.7284 16.8222C10.7174 17.2057 10.7928 17.5867 10.949 17.9371C11.1052 18.2875 11.3383 18.5983 11.631 18.8463C11.3481 19.0855 11.1208 19.3836 10.9651 19.7197C10.8093 20.0558 10.7287 20.4219 10.729 20.7923V20.9183C10.729 21.6183 11.01 22.2513 11.466 22.7123C11.1161 23.0585 10.877 23.5008 10.7791 23.9832C10.6811 24.4655 10.7287 24.9661 10.9158 25.4213C11.1029 25.8765 11.4211 26.2658 11.8299 26.5399C12.2388 26.8139 12.7198 26.9602 13.212 26.9603H16.016C16.4523 26.9604 16.8809 26.8455 17.2587 26.6271C17.6365 26.4088 17.95 26.0948 18.1678 25.7167C18.3856 25.3386 18.4999 24.9098 18.4992 24.4735C18.4986 24.0372 18.3829 23.6087 18.164 23.2313C18.6044 23.0261 18.977 22.6994 19.2381 22.2897C19.4992 21.88 19.638 21.4042 19.638 20.9183V20.7923C19.638 20.0023 19.278 19.2973 18.716 18.8293C19.0376 18.5501 19.2845 18.195 19.4343 17.7963C19.5841 17.3975 19.632 16.9677 19.5737 16.5458C19.5154 16.1239 19.3528 15.7231 19.1005 15.3799C18.8482 15.0367 18.5143 14.7619 18.129 14.5803C18.523 14.1303 18.762 13.5413 18.762 12.8963Z" fill="url(#paint8_linear_19_9)"/>
</g>
<g filter="url(#filter2_i_19_9)">
<path d="M18.13 14.7383C19.7372 14.7383 21.04 13.4355 21.04 11.8283C21.04 10.2212 19.7372 8.91833 18.13 8.91833H14.907C13.2999 8.91833 11.997 10.2212 11.997 11.8283C11.997 13.4355 13.2999 14.7383 14.907 14.7383H18.13Z" fill="url(#paint9_linear_19_9)"/>
<path d="M18.13 14.7383C19.7372 14.7383 21.04 13.4355 21.04 11.8283C21.04 10.2212 19.7372 8.91833 18.13 8.91833H14.907C13.2999 8.91833 11.997 10.2212 11.997 11.8283C11.997 13.4355 13.2999 14.7383 14.907 14.7383H18.13Z" fill="url(#paint10_radial_19_9)"/>
<path d="M18.13 14.7383C19.7372 14.7383 21.04 13.4355 21.04 11.8283C21.04 10.2212 19.7372 8.91833 18.13 8.91833H14.907C13.2999 8.91833 11.997 10.2212 11.997 11.8283C11.997 13.4355 13.2999 14.7383 14.907 14.7383H18.13Z" fill="url(#paint11_radial_19_9)"/>
</g>
<g filter="url(#filter3_f_19_9)">
<path d="M18.817 10.3453H15.197C14.5023 10.3453 13.939 10.9086 13.939 11.6033C13.939 12.2981 14.5023 12.8613 15.197 12.8613H18.817C19.5118 12.8613 20.075 12.2981 20.075 11.6033C20.075 10.9086 19.5118 10.3453 18.817 10.3453Z" fill="url(#paint12_linear_19_9)"/>
</g>
<g filter="url(#filter4_i_19_9)">
<path d="M17.907 27.8683C19.4711 27.8683 20.739 26.6004 20.739 25.0363C20.739 23.4723 19.4711 22.2043 17.907 22.2043H14.71C13.1459 22.2043 11.878 23.4723 11.878 25.0363C11.878 26.6004 13.1459 27.8683 14.71 27.8683H17.907Z" fill="url(#paint13_linear_19_9)"/>
<path d="M17.907 27.8683C19.4711 27.8683 20.739 26.6004 20.739 25.0363C20.739 23.4723 19.4711 22.2043 17.907 22.2043H14.71C13.1459 22.2043 11.878 23.4723 11.878 25.0363C11.878 26.6004 13.1459 27.8683 14.71 27.8683H17.907Z" fill="url(#paint14_radial_19_9)"/>
<path d="M17.907 27.8683C19.4711 27.8683 20.739 26.6004 20.739 25.0363C20.739 23.4723 19.4711 22.2043 17.907 22.2043H14.71C13.1459 22.2043 11.878 23.4723 11.878 25.0363C11.878 26.6004 13.1459 27.8683 14.71 27.8683H17.907Z" fill="url(#paint15_radial_19_9)"/>
</g>
<g filter="url(#filter5_f_19_9)">
<path d="M19.337 23.8864H15.443C15.0354 23.8864 14.705 24.2168 14.705 24.6244C14.705 25.0319 15.0354 25.3624 15.443 25.3624H19.337C19.7446 25.3624 20.075 25.0319 20.075 24.6244C20.075 24.2168 19.7446 23.8864 19.337 23.8864Z" fill="url(#paint16_linear_19_9)"/>
</g>
<g filter="url(#filter6_i_19_9)">
<path d="M22.038 20.9754V20.8314C22.038 19.2242 20.7352 17.9214 19.128 17.9214H14.789C13.1819 17.9214 11.879 19.2242 11.879 20.8314V20.9754C11.879 22.5825 13.1819 23.8854 14.789 23.8854H19.128C20.7352 23.8854 22.038 22.5825 22.038 20.9754Z" fill="url(#paint17_linear_19_9)"/>
<path d="M22.038 20.9754V20.8314C22.038 19.2242 20.7352 17.9214 19.128 17.9214H14.789C13.1819 17.9214 11.879 19.2242 11.879 20.8314V20.9754C11.879 22.5825 13.1819 23.8854 14.789 23.8854H19.128C20.7352 23.8854 22.038 22.5825 22.038 20.9754Z" fill="url(#paint18_radial_19_9)"/>
<path d="M22.038 20.9754V20.8314C22.038 19.2242 20.7352 17.9214 19.128 17.9214H14.789C13.1819 17.9214 11.879 19.2242 11.879 20.8314V20.9754C11.879 22.5825 13.1819 23.8854 14.789 23.8854H19.128C20.7352 23.8854 22.038 22.5825 22.038 20.9754Z" fill="url(#paint19_radial_19_9)"/>
</g>
<g filter="url(#filter7_f_19_9)">
<path d="M20.302 20.0164H15.053C14.6454 20.0164 14.315 20.3468 14.315 20.7544C14.315 21.1619 14.6454 21.4924 15.053 21.4924H20.302C20.7096 21.4924 21.04 21.1619 21.04 20.7544C21.04 20.3468 20.7096 20.0164 20.302 20.0164Z" fill="url(#paint20_linear_19_9)"/>
</g>
<g filter="url(#filter8_i_19_9)">
<path d="M21.992 16.3953V16.3823C21.992 14.7751 20.6892 13.4723 19.082 13.4723H14.788C13.1809 13.4723 11.878 14.7751 11.878 16.3823V16.3953C11.878 18.0024 13.1809 19.3053 14.788 19.3053H19.082C20.6892 19.3053 21.992 18.0024 21.992 16.3953Z" fill="url(#paint21_linear_19_9)"/>
<path d="M21.992 16.3953V16.3823C21.992 14.7751 20.6892 13.4723 19.082 13.4723H14.788C13.1809 13.4723 11.878 14.7751 11.878 16.3823V16.3953C11.878 18.0024 13.1809 19.3053 14.788 19.3053H19.082C20.6892 19.3053 21.992 18.0024 21.992 16.3953Z" fill="url(#paint22_radial_19_9)"/>
</g>
<g filter="url(#filter9_f_19_9)">
<path d="M19.782 14.6974H15.126C14.4312 14.6974 13.868 15.2606 13.868 15.9554C13.868 16.6502 14.4312 17.2134 15.126 17.2134H19.782C20.4768 17.2134 21.04 16.6502 21.04 15.9554C21.04 15.2606 20.4768 14.6974 19.782 14.6974Z" fill="url(#paint23_linear_19_9)"/>
</g>
<path d="M10.651 0.057373C9.77867 0.057373 8.9421 0.403892 8.3253 1.0207C7.70849 1.63751 7.36197 2.47408 7.36197 3.34637V5.89837H7.35997C7.35997 6.46037 7.28197 7.67337 6.87997 8.42137C6.41597 9.28337 5.53597 9.81137 4.81697 10.2414C4.59697 10.3734 4.39297 10.4964 4.21997 10.6164C5.21497 11.4134 7.25197 13.0064 7.30197 12.9684C7.35197 12.9304 9.64597 11.7134 10.786 11.1084L10.738 10.4184C11.5948 10.3954 12.4087 10.039 13.0066 9.42484C13.6045 8.81071 13.939 7.98746 13.939 7.13037V3.34637C13.939 2.47425 13.5926 1.63783 12.976 1.02105C12.3594 0.404274 11.5231 0.0576382 10.651 0.057373Z" fill="url(#paint24_radial_19_9)"/>
<g filter="url(#filter10_f_19_9)">
<path d="M13.099 2.48529C13.099 1.83084 12.5685 1.30029 11.914 1.30029C11.2595 1.30029 10.729 1.83084 10.729 2.48529V8.11229C10.729 8.76675 11.2595 9.29729 11.914 9.29729C12.5685 9.29729 13.099 8.76675 13.099 8.11229V2.48529Z" fill="url(#paint25_linear_19_9)"/>
</g>
<defs>
<filter id="filter0_i_19_9" x="0" y="0" width="19.048" height="27.8673" filterUnits="userSpaceOnUse" color-interpolation-filters="sRGB">
<feFlood flood-opacity="0" result="BackgroundImageFix"/>
<feBlend mode="normal" in="SourceGraphic" in2="BackgroundImageFix" result="shape"/>
<feColorMatrix in="SourceAlpha" type="matrix" values="0 0 0 0 0 0 0 0 0 0 0 0 0 0 0 0 0 0 127 0" result="hardAlpha"/>
<feOffset dx="0.5"/>
<feGaussianBlur stdDeviation="1.5"/>
<feComposite in2="hardAlpha" operator="arithmetic" k2="-1" k3="1"/>
<feColorMatrix type="matrix" values="0 0 0 0 0.87451 0 0 0 0 0.67451 0 0 0 0 0.568627 0 0 0 1 0"/>
<feBlend mode="normal" in2="shape" result="effect1_innerShadow_19_9"/>
</filter>
<filter id="filter1_f_19_9" x="8.72736" y="8.34534" width="12.9106" height="20.615" filterUnits="userSpaceOnUse" color-interpolation-filters="sRGB">
<feFlood flood-opacity="0" result="BackgroundImageFix"/>
<feBlend mode="normal" in="SourceGraphic" in2="BackgroundImageFix" result="shape"/>
<feGaussianBlur stdDeviation="1" result="effect1_foregroundBlur_19_9"/>
</filter>
<filter id="filter2_i_19_9" x="11.997" y="8.91833" width="9.54303" height="5.81995" filterUnits="userSpaceOnUse" color-interpolation-filters="sRGB">
<feFlood flood-opacity="0" result="BackgroundImageFix"/>
<feBlend mode="normal" in="SourceGraphic" in2="BackgroundImageFix" result="shape"/>
<feColorMatrix in="SourceAlpha" type="matrix" values="0 0 0 0 0 0 0 0 0 0 0 0 0 0 0 0 0 0 127 0" result="hardAlpha"/>
<feOffset dx="0.5"/>
<feGaussianBlur stdDeviation="0.75"/>
<feComposite in2="hardAlpha" operator="arithmetic" k2="-1" k3="1"/>
<feColorMatrix type="matrix" values="0 0 0 0 0.898039 0 0 0 0 0.690196 0 0 0 0 0.568627 0 0 0 1 0"/>
<feBlend mode="normal" in2="shape" result="effect1_innerShadow_19_9"/>
</filter>
<filter id="filter3_f_19_9" x="12.689" y="9.09534" width="8.63599" height="5.01599" filterUnits="userSpaceOnUse" color-interpolation-filters="sRGB">
<feFlood flood-opacity="0" result="BackgroundImageFix"/>
<feBlend mode="normal" in="SourceGraphic" in2="BackgroundImageFix" result="shape"/>
<feGaussianBlur stdDeviation="0.625" result="effect1_foregroundBlur_19_9"/>
</filter>
<filter id="filter4_i_19_9" x="11.878" y="22.2043" width="9.36102" height="6.16394" filterUnits="userSpaceOnUse" color-interpolation-filters="sRGB">
<feFlood flood-opacity="0" result="BackgroundImageFix"/>
<feBlend mode="normal" in="SourceGraphic" in2="BackgroundImageFix" result="shape"/>
<feColorMatrix in="SourceAlpha" type="matrix" values="0 0 0 0 0 0 0 0 0 0 0 0 0 0 0 0 0 0 127 0" result="hardAlpha"/>
<feOffset dx="0.5" dy="0.5"/>
<feGaussianBlur stdDeviation="0.75"/>
<feComposite in2="hardAlpha" operator="arithmetic" k2="-1" k3="1"/>
<feColorMatrix type="matrix" values="0 0 0 0 0.811765 0 0 0 0 0.568627 0 0 0 0 0.541176 0 0 0 1 0"/>
<feBlend mode="normal" in2="shape" result="effect1_innerShadow_19_9"/>
</filter>
<filter id="filter5_f_19_9" x="13.455" y="22.6364" width="7.87" height="3.97595" filterUnits="userSpaceOnUse" color-interpolation-filters="sRGB">
<feFlood flood-opacity="0" result="BackgroundImageFix"/>
<feBlend mode="normal" in="SourceGraphic" in2="BackgroundImageFix" result="shape"/>
<feGaussianBlur stdDeviation="0.625" result="effect1_foregroundBlur_19_9"/>
</filter>
<filter id="filter6_i_19_9" x="11.879" y="17.9214" width="11.159" height="6.46399" filterUnits="userSpaceOnUse" color-interpolation-filters="sRGB">
<feFlood flood-opacity="0" result="BackgroundImageFix"/>
<feBlend mode="normal" in="SourceGraphic" in2="BackgroundImageFix" result="shape"/>
<feColorMatrix in="SourceAlpha" type="matrix" values="0 0 0 0 0 0 0 0 0 0 0 0 0 0 0 0 0 0 127 0" result="hardAlpha"/>
<feOffset dx="1" dy="0.5"/>
<feGaussianBlur stdDeviation="0.75"/>
<feComposite in2="hardAlpha" operator="arithmetic" k2="-1" k3="1"/>
<feColorMatrix type="matrix" values="0 0 0 0 0.831373 0 0 0 0 0.576471 0 0 0 0 0.505882 0 0 0 1 0"/>
<feBlend mode="normal" in2="shape" result="effect1_innerShadow_19_9"/>
</filter>
<filter id="filter7_f_19_9" x="13.065" y="18.7664" width="9.22498" height="3.97595" filterUnits="userSpaceOnUse" color-interpolation-filters="sRGB">
<feFlood flood-opacity="0" result="BackgroundImageFix"/>
<feBlend mode="normal" in="SourceGraphic" in2="BackgroundImageFix" result="shape"/>
<feGaussianBlur stdDeviation="0.625" result="effect1_foregroundBlur_19_9"/>
</filter>
<filter id="filter8_i_19_9" x="11.878" y="13.4723" width="10.614" height="6.33301" filterUnits="userSpaceOnUse" color-interpolation-filters="sRGB">
<feFlood flood-opacity="0" result="BackgroundImageFix"/>
<feBlend mode="normal" in="SourceGraphic" in2="BackgroundImageFix" result="shape"/>
<feColorMatrix in="SourceAlpha" type="matrix" values="0 0 0 0 0 0 0 0 0 0 0 0 0 0 0 0 0 0 127 0" result="hardAlpha"/>
<feOffset dx="0.5" dy="0.5"/>
<feGaussianBlur stdDeviation="0.75"/>
<feComposite in2="hardAlpha" operator="arithmetic" k2="-1" k3="1"/>
<feColorMatrix type="matrix" values="0 0 0 0 0.862745 0 0 0 0 0.658824 0 0 0 0 0.54902 0 0 0 1 0"/>
<feBlend mode="normal" in2="shape" result="effect1_innerShadow_19_9"/>
</filter>
<filter id="filter9_f_19_9" x="12.618" y="13.4474" width="9.672" height="5.01599" filterUnits="userSpaceOnUse" color-interpolation-filters="sRGB">
<feFlood flood-opacity="0" result="BackgroundImageFix"/>
<feBlend mode="normal" in="SourceGraphic" in2="BackgroundImageFix" result="shape"/>
<feGaussianBlur stdDeviation="0.625" result="effect1_foregroundBlur_19_9"/>
</filter>
<filter id="filter10_f_19_9" x="9.479" y="0.050293" width="4.87" height="10.4969" filterUnits="userSpaceOnUse" color-interpolation-filters="sRGB">
<feFlood flood-opacity="0" result="BackgroundImageFix"/>
<feBlend mode="normal" in="SourceGraphic" in2="BackgroundImageFix" result="shape"/>
<feGaussianBlur stdDeviation="0.625" result="effect1_foregroundBlur_19_9"/>
</filter>
<linearGradient id="paint0_linear_19_9" x1="14.81" y1="10.0213" x2="3.454" y2="31.6923" gradientUnits="userSpaceOnUse">
<stop stop-color="#FFDDBE"/>
<stop offset="1" stop-color="#E7AFA8"/>
</linearGradient>
<radialGradient id="paint1_radial_19_9" cx="0" cy="0" r="1" gradientUnits="userSpaceOnUse" gradientTransform="translate(13.2375 1.48205) rotate(138.814) scale(3.70607 2.89161)">
<stop stop-color="#FFE6C7"/>
<stop offset="1" stop-color="#FFE6C7" stop-opacity="0"/>
</radialGradient>
<radialGradient id="paint2_radial_19_9" cx="0" cy="0" r="1" gradientUnits="userSpaceOnUse" gradientTransform="translate(5.47641 13.962) rotate(133.564) scale(7.41221 5.36952)">
<stop stop-color="#F2C0A5"/>
<stop offset="1" stop-color="#F2C0A5" stop-opacity="0"/>
</radialGradient>
<radialGradient id="paint3_radial_19_9" cx="0" cy="0" r="1" gradientUnits="userSpaceOnUse" gradientTransform="translate(15.023 14.8523) rotate(135.794) scale(10.6892 6.58962)">
<stop stop-color="#DDA895"/>
<stop offset="1" stop-color="#DDA895" stop-opacity="0"/>
</radialGradient>
<radialGradient id="paint4_radial_19_9" cx="0" cy="0" r="1" gradientUnits="userSpaceOnUse" gradientTransform="translate(5.604 31.9624) rotate(-62.612) scale(14.7421 26.2114)">
<stop stop-color="#C08494"/>
<stop offset="1" stop-color="#C08494" stop-opacity="0"/>
</radialGradient>
<radialGradient id="paint5_radial_19_9" cx="0" cy="0" r="1" gradientUnits="userSpaceOnUse" gradientTransform="translate(15.317 18.8313) rotate(180) scale(15.534 23.9075)">
<stop offset="0.864" stop-color="#EDB29B" stop-opacity="0"/>
<stop offset="1" stop-color="#EDB29B"/>
</radialGradient>
<radialGradient id="paint6_radial_19_9" cx="0" cy="0" r="1" gradientUnits="userSpaceOnUse" gradientTransform="translate(13.449 9.34435) rotate(38.8999) scale(1.56226 2.05738)">
<stop stop-color="#FFDBBA"/>
<stop offset="1" stop-color="#FFDBBA" stop-opacity="0"/>
</radialGradient>
<linearGradient id="paint7_linear_19_9" x1="9.274" y1="29.0874" x2="9.274" y2="25.6503" gradientUnits="userSpaceOnUse">
<stop stop-color="#B57895"/>
<stop offset="1" stop-color="#B57895" stop-opacity="0"/>
</linearGradient>
<linearGradient id="paint8_linear_19_9" x1="14.482" y1="12.1933" x2="14.482" y2="27.5613" gradientUnits="userSpaceOnUse">
<stop stop-color="#B5755F"/>
<stop offset="1" stop-color="#B3748D"/>
</linearGradient>
<linearGradient id="paint9_linear_19_9" x1="21.04" y1="11.8283" x2="12.895" y2="11.8283" gradientUnits="userSpaceOnUse">
<stop stop-color="#FFD8BA"/>
<stop offset="1" stop-color="#ECB9A3"/>
</linearGradient>
<radialGradient id="paint10_radial_19_9" cx="0" cy="0" r="1" gradientUnits="userSpaceOnUse" gradientTransform="translate(12.819 13.5773) scale(6.62598 2.65767)">
<stop stop-color="#DFA995"/>
<stop offset="1" stop-color="#DFA995" stop-opacity="0"/>
</radialGradient>
<radialGradient id="paint11_radial_19_9" cx="0" cy="0" r="1" gradientUnits="userSpaceOnUse" gradientTransform="translate(13.467 14.4073) rotate(-142.633) scale(2.3211 1.55367)">
<stop stop-color="#CA8C6F"/>
<stop offset="1" stop-color="#CA8C6F" stop-opacity="0"/>
</radialGradient>
<linearGradient id="paint12_linear_19_9" x1="19.756" y1="11.0343" x2="13.142" y2="11.0343" gradientUnits="userSpaceOnUse">
<stop stop-color="#FFE7CA"/>
<stop offset="1" stop-color="#FFE7CA" stop-opacity="0"/>
</linearGradient>
<linearGradient id="paint13_linear_19_9" x1="19.963" y1="25.0363" x2="11.878" y2="25.0363" gradientUnits="userSpaceOnUse">
<stop stop-color="#FECEB7"/>
<stop offset="1" stop-color="#DAA59E"/>
</linearGradient>
<radialGradient id="paint14_radial_19_9" cx="0" cy="0" r="1" gradientUnits="userSpaceOnUse" gradientTransform="translate(14.43 27.8673) scale(8.20767 1.55607)">
<stop stop-color="#BF8196"/>
<stop offset="1" stop-color="#BF8196" stop-opacity="0"/>
</radialGradient>
<radialGradient id="paint15_radial_19_9" cx="0" cy="0" r="1" gradientUnits="userSpaceOnUse" gradientTransform="translate(14.01 23.1983) scale(6.72969 1.51308)">
<stop stop-color="#B57767"/>
<stop offset="1" stop-color="#B57767" stop-opacity="0"/>
</radialGradient>
<linearGradient id="paint16_linear_19_9" x1="19.796" y1="24.2914" x2="14.007" y2="24.2914" gradientUnits="userSpaceOnUse">
<stop stop-color="#FFD2C1"/>
<stop offset="1" stop-color="#FFD2C1" stop-opacity="0"/>
</linearGradient>
<linearGradient id="paint17_linear_19_9" x1="21.148" y1="20.9034" x2="11.879" y2="20.9034" gradientUnits="userSpaceOnUse">
<stop stop-color="#FFDDC1"/>
<stop offset="1" stop-color="#E5B1A3"/>
</linearGradient>
<radialGradient id="paint18_radial_19_9" cx="0" cy="0" r="1" gradientUnits="userSpaceOnUse" gradientTransform="translate(13.937 23.8854) scale(9.21683 3.27876)">
<stop offset="0.14" stop-color="#CA8E96"/>
<stop offset="1" stop-color="#CA8E96" stop-opacity="0"/>
</radialGradient>
<radialGradient id="paint19_radial_19_9" cx="0" cy="0" r="1" gradientUnits="userSpaceOnUse" gradientTransform="translate(14.758 18.4424) scale(4.75329 1.92955)">
<stop stop-color="#BB7E6C"/>
<stop offset="1" stop-color="#BB7E6C" stop-opacity="0"/>
</radialGradient>
<linearGradient id="paint20_linear_19_9" x1="20.691" y1="20.4214" x2="13.442" y2="20.4214" gradientUnits="userSpaceOnUse">
<stop stop-color="#FFE2C9"/>
<stop offset="1" stop-color="#FFE2C9" stop-opacity="0"/>
</linearGradient>
<linearGradient id="paint21_linear_19_9" x1="21.992" y1="16.3883" x2="11.879" y2="16.3883" gradientUnits="userSpaceOnUse">
<stop stop-color="#FFDFBF"/>
<stop offset="1" stop-color="#E2AE9C"/>
</linearGradient>
<radialGradient id="paint22_radial_19_9" cx="0" cy="0" r="1" gradientUnits="userSpaceOnUse" gradientTransform="translate(14.447 19.3053) scale(8.09375 3.75685)">
<stop stop-color="#D39797"/>
<stop offset="1" stop-color="#D39797" stop-opacity="0"/>
</radialGradient>
<linearGradient id="paint23_linear_19_9" x1="20.668" y1="15.3874" x2="12.937" y2="15.3874" gradientUnits="userSpaceOnUse">
<stop stop-color="#FFE8CA"/>
<stop offset="1" stop-color="#FFE8CA" stop-opacity="0"/>
</linearGradient>
<radialGradient id="paint24_radial_19_9" cx="0" cy="0" r="1" gradientUnits="userSpaceOnUse" gradientTransform="translate(7.43497 4.12937) rotate(90) scale(6.32895 2.49784)">
<stop stop-color="#E0A892"/>
<stop offset="1" stop-color="#E0A892" stop-opacity="0"/>
</radialGradient>
<linearGradient id="paint25_linear_19_9" x1="12.976" y1="3.49329" x2="10.421" y2="3.49329" gradientUnits="userSpaceOnUse">
<stop stop-color="#FFE7CA"/>
<stop offset="1" stop-color="#FFE7CA" stop-opacity="0"/>
</linearGradient>
</defs>
</svg>
