<svg width="23" height="29" viewBox="0 0 23 29" fill="none" xmlns="http://www.w3.org/2000/svg">
<g filter="url(#filter0_i_19_47)">
<path d="M15.596 25.369C15.596 26.2357 15.2517 27.0669 14.6388 27.6798C14.026 28.2927 13.1947 28.637 12.328 28.637C11.4613 28.637 10.6301 28.2927 10.0172 27.6798C9.40431 27.0669 9.06001 26.2357 9.06001 25.369V21.609C9.06001 21.288 9.08201 20.968 9.13201 20.649C9.151 20.5328 9.16667 20.4161 9.17901 20.299C9.21501 19.93 9.17101 19.449 8.92101 19.126L9.51901 18.55C7.99629 17.7702 6.71877 16.5846 5.82758 15.1243C4.93639 13.664 4.46622 11.9857 4.46901 10.275C4.46901 9.29598 4.61901 8.35298 4.89901 7.46698L5.88901 1.00098H13.94V1.00298C18.913 1.10998 22.902 4.35298 22.902 10.275C22.902 13.756 21.235 16.559 18.713 18.139L18.719 18.144C18.547 18.264 18.345 18.384 18.128 18.515L18.126 18.516C17.411 18.945 16.536 19.469 16.076 20.326C15.676 21.069 15.598 22.275 15.598 22.834L15.596 22.833V25.369Z" fill="url(#paint0_linear_19_47)"/>
<path d="M15.596 25.369C15.596 26.2357 15.2517 27.0669 14.6388 27.6798C14.026 28.2927 13.1947 28.637 12.328 28.637C11.4613 28.637 10.6301 28.2927 10.0172 27.6798C9.40431 27.0669 9.06001 26.2357 9.06001 25.369V21.609C9.06001 21.288 9.08201 20.968 9.13201 20.649C9.151 20.5328 9.16667 20.4161 9.17901 20.299C9.21501 19.93 9.17101 19.449 8.92101 19.126L9.51901 18.55C7.99629 17.7702 6.71877 16.5846 5.82758 15.1243C4.93639 13.664 4.46622 11.9857 4.46901 10.275C4.46901 9.29598 4.61901 8.35298 4.89901 7.46698L5.88901 1.00098H13.94V1.00298C18.913 1.10998 22.902 4.35298 22.902 10.275C22.902 13.756 21.235 16.559 18.713 18.139L18.719 18.144C18.547 18.264 18.345 18.384 18.128 18.515L18.126 18.516C17.411 18.945 16.536 19.469 16.076 20.326C15.676 21.069 15.598 22.275 15.598 22.834L15.596 22.833V25.369Z" fill="url(#paint1_radial_19_47)"/>
<path d="M15.596 25.369C15.596 26.2357 15.2517 27.0669 14.6388 27.6798C14.026 28.2927 13.1947 28.637 12.328 28.637C11.4613 28.637 10.6301 28.2927 10.0172 27.6798C9.40431 27.0669 9.06001 26.2357 9.06001 25.369V21.609C9.06001 21.288 9.08201 20.968 9.13201 20.649C9.151 20.5328 9.16667 20.4161 9.17901 20.299C9.21501 19.93 9.17101 19.449 8.92101 19.126L9.51901 18.55C7.99629 17.7702 6.71877 16.5846 5.82758 15.1243C4.93639 13.664 4.46622 11.9857 4.46901 10.275C4.46901 9.29598 4.61901 8.35298 4.89901 7.46698L5.88901 1.00098H13.94V1.00298C18.913 1.10998 22.902 4.35298 22.902 10.275C22.902 13.756 21.235 16.559 18.713 18.139L18.719 18.144C18.547 18.264 18.345 18.384 18.128 18.515L18.126 18.516C17.411 18.945 16.536 19.469 16.076 20.326C15.676 21.069 15.598 22.275 15.598 22.834L15.596 22.833V25.369Z" fill="url(#paint2_radial_19_47)"/>
</g>
<path d="M15.596 25.369C15.596 26.2357 15.2517 27.0669 14.6388 27.6798C14.026 28.2927 13.1947 28.637 12.328 28.637C11.4613 28.637 10.6301 28.2927 10.0172 27.6798C9.40431 27.0669 9.06001 26.2357 9.06001 25.369V21.609C9.06001 21.288 9.08201 20.968 9.13201 20.649C9.151 20.5328 9.16667 20.4161 9.17901 20.299C9.21501 19.93 9.17101 19.449 8.92101 19.126L9.51901 18.55C7.99629 17.7702 6.71877 16.5846 5.82758 15.1243C4.93639 13.664 4.46622 11.9857 4.46901 10.275C4.46901 9.29598 4.61901 8.35298 4.89901 7.46698L5.88901 1.00098H13.94V1.00298C18.913 1.10998 22.902 4.35298 22.902 10.275C22.902 13.756 21.235 16.559 18.713 18.139L18.719 18.144C18.547 18.264 18.345 18.384 18.128 18.515L18.126 18.516C17.411 18.945 16.536 19.469 16.076 20.326C15.676 21.069 15.598 22.275 15.598 22.834L15.596 22.833V25.369Z" fill="url(#paint3_radial_19_47)"/>
<path d="M15.596 25.369C15.596 26.2357 15.2517 27.0669 14.6388 27.6798C14.026 28.2927 13.1947 28.637 12.328 28.637C11.4613 28.637 10.6301 28.2927 10.0172 27.6798C9.40431 27.0669 9.06001 26.2357 9.06001 25.369V21.609C9.06001 21.288 9.08201 20.968 9.13201 20.649C9.151 20.5328 9.16667 20.4161 9.17901 20.299C9.21501 19.93 9.17101 19.449 8.92101 19.126L9.51901 18.55C7.99629 17.7702 6.71877 16.5846 5.82758 15.1243C4.93639 13.664 4.46622 11.9857 4.46901 10.275C4.46901 9.29598 4.61901 8.35298 4.89901 7.46698L5.88901 1.00098H13.94V1.00298C18.913 1.10998 22.902 4.35298 22.902 10.275C22.902 13.756 21.235 16.559 18.713 18.139L18.719 18.144C18.547 18.264 18.345 18.384 18.128 18.515L18.126 18.516C17.411 18.945 16.536 19.469 16.076 20.326C15.676 21.069 15.598 22.275 15.598 22.834L15.596 22.833V25.369Z" fill="url(#paint4_radial_19_47)"/>
<path d="M15.596 25.369C15.596 26.2357 15.2517 27.0669 14.6388 27.6798C14.026 28.2927 13.1947 28.637 12.328 28.637C11.4613 28.637 10.6301 28.2927 10.0172 27.6798C9.40431 27.0669 9.06001 26.2357 9.06001 25.369V21.609C9.06001 21.288 9.08201 20.968 9.13201 20.649C9.151 20.5328 9.16667 20.4161 9.17901 20.299C9.21501 19.93 9.17101 19.449 8.92101 19.126L9.51901 18.55C7.99629 17.7702 6.71877 16.5846 5.82758 15.1243C4.93639 13.664 4.46622 11.9857 4.46901 10.275C4.46901 9.29598 4.61901 8.35298 4.89901 7.46698L5.88901 1.00098H13.94V1.00298C18.913 1.10998 22.902 4.35298 22.902 10.275C22.902 13.756 21.235 16.559 18.713 18.139L18.719 18.144C18.547 18.264 18.345 18.384 18.128 18.515L18.126 18.516C17.411 18.945 16.536 19.469 16.076 20.326C15.676 21.069 15.598 22.275 15.598 22.834L15.596 22.833V25.369Z" fill="url(#paint5_radial_19_47)"/>
<g filter="url(#filter1_f_19_47)">
<path d="M3.33599 4.73804C3.33599 5.20604 3.45799 5.64504 3.67199 6.02104C2.81699 6.44904 2.22699 7.36104 2.22699 8.41504C2.22699 9.23504 2.58299 9.96804 3.14399 10.455C2.8658 10.7041 2.64368 11.0094 2.49232 11.3507C2.34096 11.6921 2.26382 12.0617 2.26599 12.435C2.26599 13.474 2.85099 14.371 3.69699 14.785C3.29539 15.2641 3.07644 15.8699 3.07899 16.495C3.07899 17.926 4.19199 19.086 5.56499 19.086H8.31799C9.69099 19.086 10.803 17.926 10.803 16.496C10.8053 16.1203 10.727 15.7485 10.5735 15.4056C10.4199 15.0627 10.1947 14.7566 9.91299 14.508C10.224 14.2599 10.4747 13.9444 10.6462 13.5853C10.8177 13.2262 10.9055 12.8329 10.903 12.435C10.905 12.0574 10.826 11.6837 10.6712 11.3392C10.5165 10.9947 10.2896 10.6874 10.006 10.438C10.2906 10.1838 10.5179 9.87197 10.6727 9.52318C10.8275 9.17439 10.9064 8.79665 10.904 8.41504C10.904 7.68704 10.623 7.02804 10.168 6.54804C10.622 6.09004 10.904 5.44804 10.904 4.73804C10.904 3.34504 9.82099 2.21704 8.48499 2.21704H5.75499C4.41799 2.21704 3.33499 3.34504 3.33499 4.73704L3.33599 4.73804Z" fill="#E39F84"/>
</g>
<g filter="url(#filter2_f_19_47)">
<path d="M18.08 17.802C14.437 15.562 10.78 17.135 9.83301 17.802L8.99301 16.722C14.373 14.159 17.239 16.362 18.08 17.802Z" fill="#E6A39A"/>
</g>
<path d="M4.884 14.048C3.2868 14.048 1.992 15.3428 1.992 16.94C1.992 18.5372 3.2868 19.832 4.884 19.832H8.088C9.68521 19.832 10.98 18.5372 10.98 16.94C10.98 15.3428 9.68521 14.048 8.088 14.048H4.884Z" fill="url(#paint6_linear_19_47)"/>
<path d="M4.884 14.048C3.2868 14.048 1.992 15.3428 1.992 16.94C1.992 18.5372 3.2868 19.832 4.884 19.832H8.088C9.68521 19.832 10.98 18.5372 10.98 16.94C10.98 15.3428 9.68521 14.048 8.088 14.048H4.884Z" fill="url(#paint7_linear_19_47)"/>
<path d="M4.884 14.048C3.2868 14.048 1.992 15.3428 1.992 16.94C1.992 18.5372 3.2868 19.832 4.884 19.832H8.088C9.68521 19.832 10.98 18.5372 10.98 16.94C10.98 15.3428 9.68521 14.048 8.088 14.048H4.884Z" fill="url(#paint8_radial_19_47)"/>
<path d="M4.884 14.048C3.2868 14.048 1.992 15.3428 1.992 16.94C1.992 18.5372 3.2868 19.832 4.884 19.832H8.088C9.68521 19.832 10.98 18.5372 10.98 16.94C10.98 15.3428 9.68521 14.048 8.088 14.048H4.884Z" fill="url(#paint9_radial_19_47)"/>
<path d="M4.884 14.048C3.2868 14.048 1.992 15.3428 1.992 16.94C1.992 18.5372 3.2868 19.832 4.884 19.832H8.088C9.68521 19.832 10.98 18.5372 10.98 16.94C10.98 15.3428 9.68521 14.048 8.088 14.048H4.884Z" fill="url(#paint10_radial_19_47)"/>
<path d="M2.29001 3.81403V3.81503C2.29001 5.36916 3.54988 6.62903 5.10401 6.62903H8.28201C9.83614 6.62903 11.096 5.36916 11.096 3.81503V3.81403C11.096 2.2599 9.83614 1.00003 8.28201 1.00003H5.10401C3.54988 1.00003 2.29001 2.2599 2.29001 3.81403Z" fill="url(#paint11_linear_19_47)"/>
<path d="M2.29001 3.81403V3.81503C2.29001 5.36916 3.54988 6.62903 5.10401 6.62903H8.28201C9.83614 6.62903 11.096 5.36916 11.096 3.81503V3.81403C11.096 2.2599 9.83614 1.00003 8.28201 1.00003H5.10401C3.54988 1.00003 2.29001 2.2599 2.29001 3.81403Z" fill="url(#paint12_radial_19_47)"/>
<path d="M2.29001 3.81403V3.81503C2.29001 5.36916 3.54988 6.62903 5.10401 6.62903H8.28201C9.83614 6.62903 11.096 5.36916 11.096 3.81503V3.81403C11.096 2.2599 9.83614 1.00003 8.28201 1.00003H5.10401C3.54988 1.00003 2.29001 2.2599 2.29001 3.81403Z" fill="url(#paint13_radial_19_47)"/>
<path d="M2.29001 3.81403V3.81503C2.29001 5.36916 3.54988 6.62903 5.10401 6.62903H8.28201C9.83614 6.62903 11.096 5.36916 11.096 3.81503V3.81403C11.096 2.2599 9.83614 1.00003 8.28201 1.00003H5.10401C3.54988 1.00003 2.29001 2.2599 2.29001 3.81403Z" fill="url(#paint14_radial_19_47)"/>
<path d="M1 7.86606V7.97306C1 9.5802 2.30285 10.8831 3.91 10.8831H8.187C9.79415 10.8831 11.097 9.5802 11.097 7.97306V7.86606C11.097 6.25891 9.79415 4.95606 8.187 4.95606H3.91C2.30285 4.95606 1 6.25891 1 7.86606Z" fill="url(#paint15_linear_19_47)"/>
<path d="M1 7.86606V7.97306C1 9.5802 2.30285 10.8831 3.91 10.8831H8.187C9.79415 10.8831 11.097 9.5802 11.097 7.97306V7.86606C11.097 6.25891 9.79415 4.95606 8.187 4.95606H3.91C2.30285 4.95606 1 6.25891 1 7.86606Z" fill="url(#paint16_radial_19_47)"/>
<path d="M1 7.86606V7.97306C1 9.5802 2.30285 10.8831 3.91 10.8831H8.187C9.79415 10.8831 11.097 9.5802 11.097 7.97306V7.86606C11.097 6.25891 9.79415 4.95606 8.187 4.95606H3.91C2.30285 4.95606 1 6.25891 1 7.86606Z" fill="url(#paint17_radial_19_47)"/>
<path d="M1 7.86606V7.97306C1 9.5802 2.30285 10.8831 3.91 10.8831H8.187C9.79415 10.8831 11.097 9.5802 11.097 7.97306V7.86606C11.097 6.25891 9.79415 4.95606 8.187 4.95606H3.91C2.30285 4.95606 1 6.25891 1 7.86606Z" fill="url(#paint18_radial_19_47)"/>
<path d="M3.94401 9.50805C2.34294 9.50805 1.04501 10.8058 1.04501 12.4066C1.04501 14.0074 2.34294 15.3051 3.94401 15.3051H8.19701C9.79809 15.3051 11.096 14.0074 11.096 12.4066C11.096 10.8058 9.79809 9.50805 8.19701 9.50805H3.94401Z" fill="url(#paint19_linear_19_47)"/>
<path d="M3.94401 9.50805C2.34294 9.50805 1.04501 10.8058 1.04501 12.4066C1.04501 14.0074 2.34294 15.3051 3.94401 15.3051H8.19701C9.79809 15.3051 11.096 14.0074 11.096 12.4066C11.096 10.8058 9.79809 9.50805 8.19701 9.50805H3.94401Z" fill="url(#paint20_radial_19_47)"/>
<path d="M3.94401 9.50805C2.34294 9.50805 1.04501 10.8058 1.04501 12.4066C1.04501 14.0074 2.34294 15.3051 3.94401 15.3051H8.19701C9.79809 15.3051 11.096 14.0074 11.096 12.4066C11.096 10.8058 9.79809 9.50805 8.19701 9.50805H3.94401Z" fill="url(#paint21_radial_19_47)"/>
<path d="M3.94401 9.50805C2.34294 9.50805 1.04501 10.8058 1.04501 12.4066C1.04501 14.0074 2.34294 15.3051 3.94401 15.3051H8.19701C9.79809 15.3051 11.096 14.0074 11.096 12.4066C11.096 10.8058 9.79809 9.50805 8.19701 9.50805H3.94401Z" fill="url(#paint22_radial_19_47)"/>
<defs>
<filter id="filter0_i_19_47" x="4.46899" y="1.00098" width="18.933" height="27.636" filterUnits="userSpaceOnUse" color-interpolation-filters="sRGB">
<feFlood flood-opacity="0" result="BackgroundImageFix"/>
<feBlend mode="normal" in="SourceGraphic" in2="BackgroundImageFix" result="shape"/>
<feColorMatrix in="SourceAlpha" type="matrix" values="0 0 0 0 0 0 0 0 0 0 0 0 0 0 0 0 0 0 127 0" result="hardAlpha"/>
<feOffset dx="0.5"/>
<feGaussianBlur stdDeviation="0.5"/>
<feComposite in2="hardAlpha" operator="arithmetic" k2="-1" k3="1"/>
<feColorMatrix type="matrix" values="0 0 0 0 0.921569 0 0 0 0 0.756863 0 0 0 0 0.65098 0 0 0 1 0"/>
<feBlend mode="normal" in2="shape" result="effect1_innerShadow_19_47"/>
</filter>
<filter id="filter1_f_19_47" x="0.22699" y="0.217041" width="12.6771" height="20.869" filterUnits="userSpaceOnUse" color-interpolation-filters="sRGB">
<feFlood flood-opacity="0" result="BackgroundImageFix"/>
<feBlend mode="normal" in="SourceGraphic" in2="BackgroundImageFix" result="shape"/>
<feGaussianBlur stdDeviation="1" result="effect1_foregroundBlur_19_47"/>
</filter>
<filter id="filter2_f_19_47" x="7.49301" y="14.0428" width="12.087" height="5.25916" filterUnits="userSpaceOnUse" color-interpolation-filters="sRGB">
<feFlood flood-opacity="0" result="BackgroundImageFix"/>
<feBlend mode="normal" in="SourceGraphic" in2="BackgroundImageFix" result="shape"/>
<feGaussianBlur stdDeviation="0.75" result="effect1_foregroundBlur_19_47"/>
</filter>
<linearGradient id="paint0_linear_19_47" x1="21.876" y1="6.92398" x2="7.38201" y2="28.638" gradientUnits="userSpaceOnUse">
<stop stop-color="#FFD8B8"/>
<stop offset="1" stop-color="#EAB2A3"/>
</linearGradient>
<radialGradient id="paint1_radial_19_47" cx="0" cy="0" r="1" gradientUnits="userSpaceOnUse" gradientTransform="translate(10 20.6318) rotate(90.785) scale(6.84439 2.83792)">
<stop stop-color="#CF8B80"/>
<stop offset="1" stop-color="#CF8B80" stop-opacity="0"/>
</radialGradient>
<radialGradient id="paint2_radial_19_47" cx="0" cy="0" r="1" gradientUnits="userSpaceOnUse" gradientTransform="translate(13.6852 15.7318) rotate(-63.938) scale(7.24207 13.4771)">
<stop stop-color="#EEAEA3"/>
<stop offset="1" stop-color="#EEAEA3" stop-opacity="0"/>
</radialGradient>
<radialGradient id="paint3_radial_19_47" cx="0" cy="0" r="1" gradientUnits="userSpaceOnUse" gradientTransform="translate(19.784 6.38598) rotate(150.369) scale(7.01627 8.05158)">
<stop stop-color="#FFE8CA"/>
<stop offset="1" stop-color="#FFE8CA" stop-opacity="0"/>
</radialGradient>
<radialGradient id="paint4_radial_19_47" cx="0" cy="0" r="1" gradientUnits="userSpaceOnUse" gradientTransform="translate(15.185 24.903) scale(4.64396 9.96517)">
<stop stop-color="#FFDAC4"/>
<stop offset="1" stop-color="#FFDAC4" stop-opacity="0"/>
</radialGradient>
<radialGradient id="paint5_radial_19_47" cx="0" cy="0" r="1" gradientUnits="userSpaceOnUse" gradientTransform="translate(12.5635 9.03061) rotate(90) scale(20.0228 12.9389)">
<stop offset="0.902" stop-color="#BD7E96" stop-opacity="0"/>
<stop offset="1" stop-color="#BD7E96"/>
</radialGradient>
<linearGradient id="paint6_linear_19_47" x1="1.992" y1="16.94" x2="10.979" y2="16.94" gradientUnits="userSpaceOnUse">
<stop stop-color="#D7A195"/>
<stop offset="1" stop-color="#F4BEB0"/>
</linearGradient>
<linearGradient id="paint7_linear_19_47" x1="6.485" y1="20.185" x2="6.485" y2="18.308" gradientUnits="userSpaceOnUse">
<stop stop-color="#BA7E93"/>
<stop offset="1" stop-color="#BA7E93" stop-opacity="0"/>
</linearGradient>
<radialGradient id="paint8_radial_19_47" cx="0" cy="0" r="1" gradientUnits="userSpaceOnUse" gradientTransform="translate(9.634 16.279) rotate(180) scale(2.58086 2.00356)">
<stop stop-color="#FFDBC5"/>
<stop offset="1" stop-color="#FFDBC5" stop-opacity="0"/>
</radialGradient>
<radialGradient id="paint9_radial_19_47" cx="0" cy="0" r="1" gradientUnits="userSpaceOnUse" gradientTransform="translate(9.306 16.94) rotate(178.647) scale(7.31765 8.00427)">
<stop offset="0.808" stop-color="#E8AE99" stop-opacity="0"/>
<stop offset="1" stop-color="#E8AE99"/>
</radialGradient>
<radialGradient id="paint10_radial_19_47" cx="0" cy="0" r="1" gradientUnits="userSpaceOnUse" gradientTransform="translate(5.927 15.319) rotate(90) scale(0.9313 4.89838)">
<stop stop-color="#CB887C"/>
<stop offset="1" stop-color="#CB887C" stop-opacity="0"/>
</radialGradient>
<linearGradient id="paint11_linear_19_47" x1="3.19801" y1="5.28503" x2="10.303" y2="2.94003" gradientUnits="userSpaceOnUse">
<stop stop-color="#E5B39A"/>
<stop offset="1" stop-color="#FFDFC1"/>
</linearGradient>
<radialGradient id="paint12_radial_19_47" cx="0" cy="0" r="1" gradientUnits="userSpaceOnUse" gradientTransform="translate(6.60501 5.74503) rotate(-90) scale(1.06838 4.40184)">
<stop stop-color="#DDA384"/>
<stop offset="1" stop-color="#DDA384" stop-opacity="0"/>
</radialGradient>
<radialGradient id="paint13_radial_19_47" cx="0" cy="0" r="1" gradientUnits="userSpaceOnUse" gradientTransform="translate(9.47801 2.84303) rotate(-180) scale(2.78495 2.38236)">
<stop stop-color="#FFE7C9"/>
<stop offset="1" stop-color="#FFE7C9" stop-opacity="0"/>
</radialGradient>
<radialGradient id="paint14_radial_19_47" cx="0" cy="0" r="1" gradientUnits="userSpaceOnUse" gradientTransform="translate(9.45801 3.81303) rotate(178.656) scale(7.16983 7.78893)">
<stop offset="0.808" stop-color="#EBB398" stop-opacity="0"/>
<stop offset="1" stop-color="#EBB398"/>
</radialGradient>
<linearGradient id="paint15_linear_19_47" x1="2.041" y1="9.46806" x2="10.041" y2="6.59306" gradientUnits="userSpaceOnUse">
<stop stop-color="#DEAC93"/>
<stop offset="1" stop-color="#FFDBBB"/>
</linearGradient>
<radialGradient id="paint16_radial_19_47" cx="0" cy="0" r="1" gradientUnits="userSpaceOnUse" gradientTransform="translate(5.947 9.95206) rotate(-90) scale(1.125 5.04687)">
<stop stop-color="#DA9F82"/>
<stop offset="1" stop-color="#DA9F82" stop-opacity="0"/>
</radialGradient>
<radialGradient id="paint17_radial_19_47" cx="0" cy="0" r="1" gradientUnits="userSpaceOnUse" gradientTransform="translate(9.163 7.35706) rotate(180) scale(2.68226 2.10732)">
<stop stop-color="#FFE6C9"/>
<stop offset="1" stop-color="#FFE6C9" stop-opacity="0"/>
</radialGradient>
<radialGradient id="paint18_radial_19_47" cx="0" cy="0" r="1" gradientUnits="userSpaceOnUse" gradientTransform="translate(9.218 7.92006) rotate(178.766) scale(8.22013 8.20208)">
<stop offset="0.808" stop-color="#EBB39A" stop-opacity="0"/>
<stop offset="1" stop-color="#EBB39A"/>
</radialGradient>
<linearGradient id="paint19_linear_19_47" x1="2.90701" y1="14.9031" x2="10.792" y2="11.7571" gradientUnits="userSpaceOnUse">
<stop stop-color="#D8A392"/>
<stop offset="1" stop-color="#FFDBBC"/>
</linearGradient>
<radialGradient id="paint20_radial_19_47" cx="0" cy="0" r="1" gradientUnits="userSpaceOnUse" gradientTransform="translate(4.53901 15.3051) rotate(-88.6366) scale(2.12583 11.5913)">
<stop stop-color="#C88B90"/>
<stop offset="1" stop-color="#C88B90" stop-opacity="0"/>
</radialGradient>
<radialGradient id="paint21_radial_19_47" cx="0" cy="0" r="1" gradientUnits="userSpaceOnUse" gradientTransform="translate(9.17201 11.8561) rotate(-180) scale(2.6702 2.06121)">
<stop stop-color="#FFE5CB"/>
<stop offset="1" stop-color="#FFE5CB" stop-opacity="0"/>
</radialGradient>
<radialGradient id="paint22_radial_19_47" cx="0" cy="0" r="1" gradientUnits="userSpaceOnUse" gradientTransform="translate(9.22801 12.4061) rotate(178.787) scale(8.1831 8.02265)">
<stop offset="0.808" stop-color="#EBB49B" stop-opacity="0"/>
<stop offset="1" stop-color="#EBB49B"/>
</radialGradient>
</defs>
</svg>
