<svg width="26" height="28" viewBox="0 0 26 28" fill="none" xmlns="http://www.w3.org/2000/svg">
<path d="M24.6374 0.691293L25.3505 1.45094C26.3331 2.499 26.1844 4.35692 25.0157 5.60068L10.3106 21.2662L5.54629 23.1228C4.94803 23.3571 4.36548 23.0533 4.24704 22.4468C4.20701 22.2269 4.22585 21.9993 4.30142 21.7902L6.07807 16.6709L20.7421 1.04794C21.9108 -0.195822 23.6548 -0.356764 24.6374 0.691293ZM9.66884 2.24922C9.82755 2.24922 9.98472 2.28252 10.1313 2.34722C10.278 2.41193 10.4112 2.50677 10.5234 2.62633C10.6357 2.74589 10.7247 2.88782 10.7854 3.04403C10.8462 3.20025 10.8774 3.36767 10.8774 3.53675C10.8774 3.70584 10.8462 3.87326 10.7854 4.02947C10.7247 4.18569 10.6357 4.32762 10.5234 4.44718C10.4112 4.56674 10.278 4.66158 10.1313 4.72629C9.98472 4.79099 9.82755 4.82429 9.66884 4.82429H4.83442C4.19333 4.82429 3.57851 5.0956 3.12519 5.57852C2.67188 6.06144 2.41721 6.71642 2.41721 7.39937V22.8498C2.41721 23.5328 2.67188 24.1878 3.12519 24.6707C3.57851 25.1536 4.19333 25.4249 4.83442 25.4249H19.3377C19.9788 25.4249 20.5936 25.1536 21.0469 24.6707C21.5002 24.1878 21.7549 23.5328 21.7549 22.8498V17.6997C21.7549 17.3582 21.8822 17.0307 22.1089 16.7893C22.3355 16.5478 22.6429 16.4121 22.9635 16.4121C23.284 16.4121 23.5914 16.5478 23.8181 16.7893C24.0448 17.0307 24.1721 17.3582 24.1721 17.6997V22.8498C24.1721 24.2157 23.6628 25.5257 22.7561 26.4916C21.8495 27.4574 20.6198 28 19.3377 28H4.83442C3.55225 28 2.3226 27.4574 1.41597 26.4916C0.509339 25.5257 0 24.2157 0 22.8498V7.39937C0 6.03347 0.509339 4.7235 1.41597 3.75766C2.3226 2.79182 3.55225 2.24922 4.83442 2.24922H9.66884Z" fill=""/>
</svg>
