<svg width="200" height="200" viewBox="0 0 200 200" fill="none" xmlns="http://www.w3.org/2000/svg">
<circle cx="100" cy="100" r="100" fill="#D9D9D9"/>
<path fill-rule="evenodd" clip-rule="evenodd" d="M31.4285 173.182C42.2671 160.722 55.8238 151.574 70.9077 146.449C60.3612 139.921 52.1673 129.974 47.5842 118.134C43.0011 106.295 42.2823 93.219 45.5381 80.9139C48.794 68.6089 55.8444 57.7553 65.6067 50.02C75.3691 42.2847 87.3035 38.0953 99.5773 38.0953C111.851 38.0953 123.785 42.2847 133.548 50.02C143.31 57.7553 150.361 68.6089 153.616 80.9139C156.872 93.219 156.153 106.295 151.57 118.134C146.987 129.974 138.793 139.921 128.247 146.449C143.332 151.575 156.889 160.723 167.728 173.184C149.869 189.821 125.913 200 99.5791 200C73.2446 200 49.2877 189.821 31.4285 173.182Z" fill="white"/>
</svg>
