<svg width="20" height="23" viewBox="0 0 20 23" fill="none" xmlns="http://www.w3.org/2000/svg">
<path d="M9.40066 18.5842L16.7964 10.0791C15.5521 9.48164 14.422 8.60875 13.4705 7.51006C12.5147 6.41554 11.7553 5.11559 11.2356 3.68415L3.83986 12.1892C3.26288 12.8528 2.97389 13.1851 2.7259 13.5508C2.43302 13.9823 2.18188 14.4493 1.97692 14.9434C1.80393 15.362 1.67494 15.8082 1.41694 16.6982L0.0549935 21.3935C-0.00769048 21.6085 -0.0169906 21.8393 0.0281383 22.06C0.0732672 22.2808 0.171036 22.4826 0.310456 22.643C0.449875 22.8033 0.625418 22.9157 0.817353 22.9676C1.00929 23.0195 1.21001 23.0088 1.39695 22.9368L5.4798 21.3705C6.25477 21.0738 6.64176 20.9255 7.00574 20.7265C7.43573 20.4908 7.84171 20.2022 8.2167 19.8652C8.53469 19.58 8.82368 19.2477 9.40066 18.5842ZM18.8483 7.71935C19.5857 6.87133 20 5.72117 20 4.52189C20 3.32261 19.5857 2.17245 18.8483 1.32443C18.1109 0.476412 17.1108 8.93533e-09 16.0679 0C15.0251 -8.93533e-09 14.0249 0.476412 13.2875 1.32443L12.4005 2.34444L12.4385 2.47209C12.8756 3.91036 13.5909 5.21578 14.5305 6.28995C15.4925 7.40277 16.6674 8.24156 17.9614 8.73937L18.8483 7.71935Z" fill=""/>
</svg>
