<svg width="40" height="40" viewBox="0 0 40 40" fill="none" xmlns="http://www.w3.org/2000/svg">
<path d="M20.489 0C21.5571 0.00750047 24.2292 0.0400024 27.0694 0.182511L28.0774 0.237514C30.9355 0.405025 33.7917 0.695043 35.2098 1.18757C37.0999 1.85262 38.5839 3.78774 39.086 6.24289C39.886 10.1431 39.986 17.7486 39.998 19.5912L40 19.9712V20.4063C39.986 22.2489 39.886 29.8569 39.086 33.7546C38.5779 36.2173 37.0919 38.1549 35.2098 38.8099C33.7917 39.3025 30.9355 39.5925 28.0774 39.76L27.0694 39.8175C24.2292 39.9575 21.5571 39.9925 20.489 39.9975L20.019 40H19.509C17.2489 39.9825 7.79639 39.855 4.78824 38.8099C2.90014 38.1449 1.41407 36.2098 0.912046 33.7546C0.112006 29.8544 0.0120006 22.2489 0 20.4063V19.5912C0.0120006 17.7486 0.112006 10.1406 0.912046 6.24289C1.42007 3.78024 2.90615 1.84261 4.79024 1.19007C7.79639 0.142508 17.2509 0.0150009 19.511 0H20.489ZM15.9988 11.2507V28.7518L27.9994 20.0012L15.9988 11.2507Z" fill="#666666"/>
</svg>
